# This file uses centimeters as units for non-parametric coordinates.

mtllib FightPlatform.mtl
g default
v 0.000000 -0.500000 -5.000000
v 1.545085 -0.500000 -4.755285
v 2.938925 -0.500000 -4.045085
v 4.045085 -0.500000 -2.938925
v 4.755285 -0.500000 -1.545085
v 5.000000 -0.500000 0.000000
v 4.755285 -0.500000 1.545085
v 4.045085 -0.500000 2.938925
v 2.938925 -0.500000 4.045085
v 1.545085 -0.500000 4.755285
v 0.000000 -0.500000 5.000000
v 0.000000 0.500000 -5.000000
v 1.545085 0.500000 -4.755285
v 2.938925 0.500000 -4.045085
v 4.045085 0.500000 -2.938925
v 4.755285 0.500000 -1.545085
v 5.000000 0.500000 0.000000
v 4.755285 0.500000 1.545085
v 4.045085 0.500000 2.938925
v 2.938925 0.500000 4.045085
v 1.545085 0.500000 4.755285
v 0.000000 0.500000 5.000000
v 0.000000 -0.500000 0.000000
v 0.000000 0.500000 0.000000
vt 0.864088 0.086821
vt 0.940776 0.086821
vt 0.940776 0.193711
vt 0.864088 0.193711
vt 0.864088 0.001992
vt 0.940776 0.001992
vt 0.940776 0.312199
vt 0.864088 0.312199
vt 0.940776 0.430688
vt 0.864088 0.430688
vt 0.940776 0.537578
vt 0.864088 0.537578
vt 0.940776 0.622407
vt 0.864088 0.622407
vt 0.781029 0.001992
vt 0.857716 0.001992
vt 0.857716 0.385429
vt 0.781029 0.385429
vt 0.857716 0.768867
vt 0.781029 0.768867
vt 0.120366 0.020759
vt 0.001878 0.385429
vt 0.001878 0.001992
vt 0.227257 0.075222
vt 0.312085 0.160051
vt 0.366549 0.266941
vt 0.385315 0.385429
vt 0.366549 0.503918
vt 0.312085 0.610808
vt 0.227257 0.695637
vt 0.120366 0.750100
vt 0.001878 0.768867
vt 0.391545 0.768867
vt 0.391545 0.385429
vt 0.510034 0.750100
vt 0.616924 0.695637
vt 0.701752 0.610808
vt 0.756216 0.503918
vt 0.774982 0.385429
vt 0.756216 0.266941
vt 0.701752 0.160051
vt 0.616924 0.075222
vt 0.510034 0.020759
vt 0.391545 0.001992
vt 0.858305 0.998008
vt 0.781618 0.998008
vt 0.781618 0.879519
vt 0.858305 0.879519
vt 0.781618 0.772629
vt 0.858305 0.772629
vt 0.699147 0.772629
vt 0.775834 0.772629
vt 0.775834 0.879519
vt 0.699147 0.879519
vt 0.775834 0.998008
vt 0.699147 0.998008
vn 0.156433 0.000000 -0.987689
vn 0.156433 0.000000 -0.987689
vn 0.156433 0.000000 -0.987689
vn 0.156433 0.000000 -0.987689
vn 0.309017 0.000000 -0.951057
vn 0.309017 0.000000 -0.951057
vn 0.587785 0.000000 -0.809017
vn 0.587785 0.000000 -0.809017
vn 0.587785 0.000000 -0.809017
vn 0.587785 0.000000 -0.809017
vn 0.809017 0.000000 -0.587785
vn 0.809017 0.000000 -0.587785
vn 0.809017 0.000000 -0.587785
vn 0.809017 0.000000 -0.587785
vn 0.951057 0.000000 -0.309017
vn 0.951057 0.000000 -0.309017
vn 0.951057 0.000000 -0.309017
vn 0.951057 0.000000 -0.309017
vn 1.000000 0.000000 0.000000
vn 1.000000 0.000000 0.000000
vn 1.000000 0.000000 0.000000
vn 1.000000 0.000000 0.000000
vn 0.951056 0.000000 0.309017
vn 0.951056 0.000000 0.309017
vn 0.951056 0.000000 0.309017
vn 0.951056 0.000000 0.309017
vn 0.809017 0.000000 0.587785
vn 0.809017 0.000000 0.587785
vn 0.809017 0.000000 0.587785
vn 0.809017 0.000000 0.587785
vn 0.587785 0.000000 0.809017
vn 0.587785 0.000000 0.809017
vn 0.587785 0.000000 0.809017
vn 0.587785 0.000000 0.809017
vn 0.309017 0.000000 0.951057
vn 0.309017 0.000000 0.951056
vn 0.309017 0.000000 0.951056
vn 0.309017 0.000000 0.951057
vn 0.156434 0.000000 0.987688
vn 0.156434 0.000000 0.987688
vn 0.000000 -1.000000 0.000000
vn 0.000000 -1.000000 0.000000
vn 0.000000 -1.000000 0.000000
vn 0.000000 -1.000000 0.000000
vn 0.000000 -1.000000 0.000000
vn 0.000000 -1.000000 0.000000
vn 0.000000 -1.000000 0.000000
vn 0.000000 -1.000000 0.000000
vn 0.000000 -1.000000 0.000000
vn 0.000000 -1.000000 0.000000
vn 0.000000 -1.000000 0.000000
vn 0.000000 -1.000000 0.000000
vn 0.000000 -1.000000 0.000000
vn 0.000000 -1.000000 0.000000
vn 0.000000 -1.000000 0.000000
vn 0.000000 -1.000000 0.000000
vn 0.000000 -1.000000 0.000000
vn 0.000000 -1.000000 0.000000
vn 0.000000 -1.000000 0.000000
vn 0.000000 -1.000000 0.000000
vn 0.000000 -1.000000 0.000000
vn 0.000000 -1.000000 0.000000
vn 0.000000 -1.000000 0.000000
vn 0.000000 -1.000000 0.000000
vn 0.000000 -1.000000 0.000000
vn 0.000000 -1.000000 0.000000
vn 0.000000 -1.000000 0.000000
vn 0.000000 -1.000000 0.000000
vn 0.000000 -1.000000 0.000000
vn 0.000000 -1.000000 0.000000
vn 0.000000 1.000000 0.000000
vn 0.000000 1.000000 0.000000
vn 0.000000 1.000000 0.000000
vn 0.000000 1.000000 0.000000
vn 0.000000 1.000000 0.000000
vn 0.000000 1.000000 0.000000
vn 0.000000 1.000000 0.000000
vn 0.000000 1.000000 0.000000
vn 0.000000 1.000000 0.000000
vn 0.000000 1.000000 0.000000
vn 0.000000 1.000000 0.000000
vn 0.000000 1.000000 0.000000
vn 0.000000 1.000000 0.000000
vn 0.000000 1.000000 0.000000
vn 0.000000 1.000000 0.000000
vn 0.000000 1.000000 0.000000
vn 0.000000 1.000000 0.000000
vn 0.000000 1.000000 0.000000
vn 0.000000 1.000000 0.000000
vn 0.000000 1.000000 0.000000
vn 0.000000 1.000000 0.000000
vn 0.000000 1.000000 0.000000
vn 0.000000 1.000000 0.000000
vn -0.000001 1.000000 0.000000
vn -0.000001 1.000000 0.000000
vn 0.000000 1.000000 0.000000
vn 0.000000 1.000000 0.000000
vn 0.000000 1.000000 0.000000
vn 0.000000 1.000000 0.000000
vn 0.000000 1.000000 0.000000
vn -1.000000 0.000000 0.000000
vn -1.000000 0.000000 0.000000
vn -1.000000 0.000000 0.000000
vn -1.000000 0.000000 0.000000
vn -1.000000 0.000000 0.000000
vn -1.000000 0.000000 0.000000
vn -1.000000 0.000000 0.000000
vn -1.000000 0.000000 0.000000
s off
g pCylinder2
usemtl initialShadingGroup1
f 1/45/1 12/46/2 13/47/3 2/48/4
f 2/48/5 13/47/6 14/49/7 3/50/8
f 3/5/9 14/6/10 15/2/11 4/1/12
f 4/1/13 15/2/14 16/3/15 5/4/16
f 5/4/17 16/3/18 17/7/19 6/8/20
f 6/8/21 17/7/22 18/9/23 7/10/24
f 7/10/25 18/9/26 19/11/27 8/12/28
f 8/12/29 19/11/30 20/13/31 9/14/32
f 9/51/33 20/52/34 21/53/35 10/54/36
f 10/54/37 21/53/38 22/55/39 11/56/40
f 2/21/41 23/22/42 1/23/43
f 3/24/44 23/22/45 2/21/46
f 4/25/47 23/22/48 3/24/49
f 5/26/50 23/22/51 4/25/52
f 6/27/53 23/22/54 5/26/55
f 7/28/56 23/22/57 6/27/58
f 8/29/59 23/22/60 7/28/61
f 9/30/62 23/22/63 8/29/64
f 10/31/65 23/22/66 9/30/67
f 11/32/68 23/22/69 10/31/70
f 12/33/71 24/34/72 13/35/73
f 13/35/74 24/34/75 14/36/76
f 14/36/77 24/34/78 15/37/79
f 15/37/80 24/34/81 16/38/82
f 16/38/83 24/34/84 17/39/85
f 17/39/86 24/34/87 18/40/88
f 18/40/89 24/34/90 19/41/91
f 19/41/92 24/34/93 20/42/94
f 20/42/95 24/34/96 21/43/97
f 21/43/98 24/34/99 22/44/100
f 11/15/101 22/16/102 24/17/103 23/18/104
f 23/18/105 24/17/106 12/19/107 1/20/108
g default
v 0.000000 -0.500000 -5.000000
v -1.545085 -0.500000 -4.755285
v -2.938925 -0.500000 -4.045085
v -4.045085 -0.500000 -2.938925
v -4.755285 -0.500000 -1.545085
v -5.000000 -0.500000 0.000000
v -4.755285 -0.500000 1.545085
v -4.045085 -0.500000 2.938925
v -2.938925 -0.500000 4.045085
v -1.545085 -0.500000 4.755285
v 0.000000 -0.500000 5.000000
v 0.000000 0.500000 -5.000000
v -1.545085 0.500000 -4.755285
v -2.938925 0.500000 -4.045085
v -4.045085 0.500000 -2.938925
v -4.755285 0.500000 -1.545085
v -5.000000 0.500000 0.000000
v -4.755285 0.500000 1.545085
v -4.045085 0.500000 2.938925
v -2.938925 0.500000 4.045085
v -1.545085 0.500000 4.755285
v 0.000000 0.500000 5.000000
v 0.000000 -0.500000 0.000000
v 0.000000 0.500000 0.000000
vt 0.864088 0.537578
vt 0.864088 0.430688
vt 0.940776 0.430688
vt 0.940776 0.537578
vt 0.864088 0.312199
vt 0.940776 0.312199
vt 0.864088 0.622407
vt 0.940776 0.622407
vt 0.864088 0.193711
vt 0.940776 0.193711
vt 0.864088 0.086821
vt 0.940776 0.086821
vt 0.864088 0.001992
vt 0.940776 0.001992
vt 0.781029 0.768867
vt 0.781029 0.385429
vt 0.857716 0.385429
vt 0.857716 0.768867
vt 0.781029 0.001992
vt 0.857716 0.001992
vt 0.266826 0.020759
vt 0.385315 0.001992
vt 0.385315 0.385429
vt 0.159936 0.075222
vt 0.075108 0.160051
vt 0.020644 0.266941
vt 0.001878 0.385429
vt 0.020644 0.503918
vt 0.075108 0.610808
vt 0.159936 0.695637
vt 0.266826 0.750100
vt 0.385315 0.768867
vt 0.774982 0.768867
vt 0.656494 0.750100
vt 0.774982 0.385429
vt 0.549604 0.695637
vt 0.464775 0.610808
vt 0.410312 0.503918
vt 0.391545 0.385429
vt 0.410312 0.266941
vt 0.464775 0.160051
vt 0.549604 0.075222
vt 0.656494 0.020759
vt 0.774982 0.001992
vt 0.858305 0.772629
vt 0.858305 0.891118
vt 0.781617 0.891118
vt 0.781617 0.772629
vt 0.858305 0.998008
vt 0.781617 0.998008
vt 0.699146 0.998008
vt 0.699146 0.891118
vt 0.775834 0.891118
vt 0.775834 0.998008
vt 0.699146 0.772629
vt 0.775834 0.772629
vn -0.156434 0.000000 -0.987688
vn -0.309017 0.000000 -0.951057
vn -0.309017 0.000000 -0.951057
vn -0.156434 0.000000 -0.987688
vn -0.309017 0.000000 -0.951057
vn -0.587786 0.000000 -0.809017
vn -0.587786 0.000000 -0.809017
vn -0.309017 0.000000 -0.951057
vn -0.587786 0.000000 -0.809017
vn -0.809017 0.000000 -0.587785
vn -0.809017 0.000000 -0.587785
vn -0.587786 0.000000 -0.809017
vn -0.809017 0.000000 -0.587785
vn -0.951057 0.000000 -0.309017
vn -0.951057 0.000000 -0.309017
vn -0.809017 0.000000 -0.587785
vn -0.951057 0.000000 -0.309017
vn -1.000000 0.000000 0.000000
vn -1.000000 0.000000 0.000000
vn -0.951057 0.000000 -0.309017
vn -1.000000 0.000000 0.000000
vn -0.951057 0.000000 0.309017
vn -0.951057 0.000000 0.309017
vn -1.000000 0.000000 0.000000
vn -0.951057 0.000000 0.309017
vn -0.809017 0.000000 0.587785
vn -0.809017 0.000000 0.587785
vn -0.951057 0.000000 0.309017
vn -0.809017 0.000000 0.587785
vn -0.587785 0.000000 0.809017
vn -0.587785 0.000000 0.809017
vn -0.809017 0.000000 0.587785
vn -0.587785 0.000000 0.809017
vn -0.309017 0.000000 0.951057
vn -0.309017 0.000000 0.951057
vn -0.587785 0.000000 0.809017
vn -0.309017 0.000000 0.951057
vn -0.156435 0.000000 0.987688
vn -0.156435 0.000000 0.987688
vn -0.309017 0.000000 0.951057
vn 0.000000 -1.000000 0.000000
vn 0.000000 -1.000000 0.000000
vn 0.000000 -1.000000 0.000000
vn 0.000000 -1.000000 0.000000
vn 0.000000 -1.000000 0.000000
vn 0.000000 -1.000000 0.000000
vn 0.000000 -1.000000 0.000000
vn 0.000000 -1.000000 0.000000
vn 0.000000 -1.000000 0.000000
vn 0.000000 -1.000000 0.000000
vn 0.000000 -1.000000 0.000000
vn 0.000000 -1.000000 0.000000
vn 0.000000 -1.000000 0.000000
vn 0.000000 -1.000000 0.000000
vn 0.000000 -1.000000 0.000000
vn 0.000000 -1.000000 0.000000
vn 0.000000 -1.000000 0.000000
vn 0.000000 -1.000000 0.000000
vn 0.000000 -1.000000 0.000000
vn 0.000000 -1.000000 0.000000
vn 0.000000 -1.000000 0.000000
vn 0.000000 -1.000000 0.000000
vn 0.000000 -1.000000 0.000000
vn 0.000000 -1.000000 0.000000
vn 0.000000 -1.000000 0.000000
vn 0.000000 -1.000000 0.000000
vn 0.000000 -1.000000 0.000000
vn 0.000000 -1.000000 0.000000
vn 0.000000 -1.000000 0.000000
vn 0.000000 -1.000000 0.000000
vn 0.000000 1.000000 0.000000
vn 0.000000 1.000000 0.000000
vn 0.000000 1.000000 0.000000
vn 0.000000 1.000000 0.000000
vn 0.000000 1.000000 0.000000
vn 0.000000 1.000000 0.000000
vn 0.000000 1.000000 0.000000
vn 0.000000 1.000000 0.000000
vn 0.000000 1.000000 0.000000
vn 0.000000 1.000000 0.000000
vn 0.000000 1.000000 0.000000
vn 0.000000 1.000000 0.000000
vn 0.000000 1.000000 0.000000
vn 0.000000 1.000000 0.000000
vn 0.000000 1.000000 0.000000
vn 0.000000 1.000000 0.000000
vn 0.000000 1.000000 0.000000
vn 0.000000 1.000000 0.000000
vn 0.000000 1.000000 0.000000
vn 0.000000 1.000000 0.000000
vn 0.000000 1.000000 0.000000
vn 0.000000 1.000000 0.000000
vn 0.000000 1.000000 0.000000
vn 0.000000 1.000000 0.000000
vn 0.000000 1.000000 0.000000
vn 0.000000 1.000000 0.000000
vn 0.000000 1.000000 0.000000
vn 0.000000 1.000000 0.000000
vn 0.000000 1.000000 0.000000
vn 0.000000 1.000000 0.000000
vn 1.000000 0.000000 0.000000
vn 1.000000 0.000000 0.000000
vn 1.000000 0.000000 0.000000
vn 1.000000 0.000000 0.000000
vn 1.000000 0.000000 0.000000
vn 1.000000 0.000000 0.000000
vn 1.000000 0.000000 0.000000
vn 1.000000 0.000000 0.000000
s off
g pCylinder1
usemtl initialShadingGroup1
f 25/101/109 26/102/110 37/103/111 36/104/112
f 26/102/113 27/105/114 38/106/115 37/103/116
f 27/63/117 28/57/118 39/60/119 38/64/120
f 28/57/121 29/58/122 40/59/123 39/60/124
f 29/58/125 30/61/126 41/62/127 40/59/128
f 30/61/129 31/65/130 42/66/131 41/62/132
f 31/65/133 32/67/134 43/68/135 42/66/136
f 32/67/137 33/69/138 44/70/139 43/68/140
f 33/107/141 34/108/142 45/109/143 44/110/144
f 34/108/145 35/111/146 46/112/147 45/109/148
f 26/77/149 25/78/150 47/79/151
f 27/80/152 26/77/153 47/79/154
f 28/81/155 27/80/156 47/79/157
f 29/82/158 28/81/159 47/79/160
f 30/83/161 29/82/162 47/79/163
f 31/84/164 30/83/165 47/79/166
f 32/85/167 31/84/168 47/79/169
f 33/86/170 32/85/171 47/79/172
f 34/87/173 33/86/174 47/79/175
f 35/88/176 34/87/177 47/79/178
f 36/89/179 37/90/180 48/91/181
f 37/90/182 38/92/183 48/91/184
f 38/92/185 39/93/186 48/91/187
f 39/93/188 40/94/189 48/91/190
f 40/94/191 41/95/192 48/91/193
f 41/95/194 42/96/195 48/91/196
f 42/96/197 43/97/198 48/91/199
f 43/97/200 44/98/201 48/91/202
f 44/98/203 45/99/204 48/91/205
f 45/99/206 46/100/207 48/91/208
f 35/71/209 47/72/210 48/73/211 46/74/212
f 47/72/213 25/75/214 36/76/215 48/73/216
