# This file uses centimeters as units for non-parametric coordinates.

mtllib e_Bow.mtl
g default
v -8.632494 26.227942 -3.316964
v -8.382494 26.227942 -3.316964
v -8.632494 26.227942 -3.416965
v -8.382494 26.227942 -3.416965
v -8.632494 6.889359 -3.416965
v -8.382494 6.889359 -3.416965
v -8.632494 6.889360 -3.316965
v -8.382494 6.889360 -3.316965
v -8.638998 26.404177 -3.222869
v -8.657232 26.558651 -3.419469
v -8.768909 26.355743 -3.365817
v -8.246078 26.355740 -3.365821
v -8.356781 26.558651 -3.418254
v -8.375990 26.404177 -3.222867
v -8.901340 26.335567 -3.632751
v -8.752214 26.558653 -3.681033
v -8.775047 26.310982 -3.760329
v -8.239941 26.310982 -3.760329
v -8.257631 26.558651 -3.683970
v -8.113647 26.335567 -3.632751
v -8.775047 6.806320 -3.760330
v -8.757357 6.558650 -3.683971
v -8.901340 6.781734 -3.632751
v -8.113647 6.781734 -3.632751
v -8.262774 6.558651 -3.681034
v -8.239941 6.806320 -3.760330
v -8.768909 6.761563 -3.365818
v -8.658207 6.558652 -3.418255
v -8.638998 6.713125 -3.222870
v -8.375990 6.713125 -3.222868
v -8.357756 6.558650 -3.419470
v -8.246078 6.761561 -3.365822
v -8.778837 25.308651 -2.980187
v -8.933935 25.391113 -2.862899
v -8.236151 25.308651 -2.980187
v -8.081053 25.391113 -2.862899
v -8.767929 7.893800 -2.530003
v -8.640017 7.808651 -2.402424
v -8.374971 7.808651 -2.402424
v -8.247059 7.893800 -2.530003
v -8.094688 16.558651 1.947568
v -8.238762 16.558651 1.824491
v -8.240345 14.058651 1.195169
v -8.089361 13.960711 1.308704
v -8.776226 16.558651 1.824492
v -8.920300 16.558651 1.947569
v -8.774643 14.058651 1.195169
v -8.925627 13.960711 1.308704
v -8.640017 16.558651 2.389755
v -8.769606 16.558651 2.235573
v -8.769268 18.960630 1.623522
v -8.640017 19.058653 1.753381
v -8.245382 16.558651 2.235573
v -8.374971 16.558651 2.389755
v -8.374971 19.058653 1.753379
v -8.245720 18.960630 1.623520
v -8.078306 21.684639 -0.796535
v -8.238762 21.558651 -0.901908
v -8.240345 19.058651 1.195169
v -8.089361 19.156591 1.308704
v -8.776226 21.558651 -0.901908
v -8.936682 21.684639 -0.796535
v -8.774643 19.058651 1.195169
v -8.925627 19.156591 1.308704
v -8.640017 21.558651 -0.336648
v -8.768658 21.433855 -0.445251
v -8.768658 23.964989 -1.823657
v -8.640017 24.058651 -1.694905
v -8.246330 21.433855 -0.445251
v -8.374971 21.558651 -0.336648
v -8.374971 24.058651 -1.694905
v -8.246330 23.964989 -1.823657
v -8.078306 11.432664 -0.796535
v -8.238762 11.558651 -0.901908
v -8.233688 9.058650 -2.285641
v -8.074001 8.965140 -2.166931
v -8.776226 11.558651 -0.901908
v -8.936682 11.432664 -0.796535
v -8.781300 9.058650 -2.285641
v -8.940987 8.965140 -2.166931
v -8.640017 11.558650 -0.336648
v -8.768658 11.683447 -0.445251
v -8.769268 14.156672 1.623523
v -8.640017 14.058651 1.753381
v -8.246330 11.683447 -0.445251
v -8.374971 11.558650 -0.336648
v -8.374971 14.058651 1.753379
v -8.245720 14.156672 1.623521
v -8.236151 7.808650 -2.980188
v -8.081053 7.726193 -2.862900
v -8.778837 7.808650 -2.980188
v -8.933935 7.726193 -2.862900
v -8.640017 9.058651 -1.694906
v -8.768658 9.152310 -1.823658
v -8.246330 9.152310 -1.823658
v -8.374971 9.058651 -1.694906
v -8.074001 24.152159 -2.166930
v -8.233688 24.058651 -2.285640
v -8.781300 24.058651 -2.285640
v -8.940987 24.152159 -2.166930
v -8.767929 25.223501 -2.530002
v -8.640017 25.308653 -2.402423
v -8.374971 25.308653 -2.402423
v -8.247059 25.223501 -2.530002
vt 0.375000 0.000000
vt 0.625000 0.000000
vt 0.375000 0.250000
vt 0.625000 0.250000
vt 0.375000 0.500000
vt 0.625000 0.500000
vt 0.375000 0.750000
vt 0.625000 0.750000
vt 0.375000 1.000000
vt 0.625000 1.000000
vt 0.875000 0.000000
vt 0.875000 0.250000
vt 0.125000 0.000000
vt 0.125000 0.250000
vt 0.428033 0.998069
vt 0.375000 1.000000
vt 0.375000 0.988847
vt 0.427475 0.984375
vt 0.428591 0.044205
vt 0.424005 0.000000
vt 0.557007 0.000000
vt 0.571967 0.043745
vt 0.372464 0.056616
vt 0.426276 0.180342
vt 0.372211 0.187257
vt 0.625000 1.000000
vt 0.571967 0.998069
vt 0.572525 0.984375
vt 0.625000 0.988847
vt 0.627536 0.056616
vt 0.627789 0.187257
vt 0.574924 0.181972
vt 0.375000 0.258818
vt 0.426276 0.253096
vt 0.427475 0.265625
vt 0.375000 0.265625
vt 0.573724 0.253096
vt 0.625000 0.258818
vt 0.625000 0.265625
vt 0.572525 0.265625
vt 0.426276 0.496904
vt 0.375000 0.491182
vt 0.375000 0.484375
vt 0.427475 0.484375
vt 0.425076 0.568028
vt 0.573724 0.496904
vt 0.573724 0.569658
vt 0.375000 0.591488
vt 0.428033 0.706255
vt 0.375000 0.719530
vt 0.625000 0.491182
vt 0.572525 0.484375
vt 0.625000 0.484375
vt 0.625000 0.591488
vt 0.625000 0.719530
vt 0.571409 0.705795
vt 0.127536 0.056616
vt 0.126931 0.000000
vt 0.140625 0.000000
vt 0.141689 0.054258
vt 0.428033 0.751931
vt 0.571967 0.751931
vt 0.625000 0.750000
vt 0.625000 0.761153
vt 0.572525 0.765625
vt 0.375000 0.272539
vt 0.427475 0.281250
vt 0.375000 0.281250
vt 0.625000 0.272539
vt 0.625000 0.281250
vt 0.572525 0.281250
vt 0.156250 0.000000
vt 0.157421 0.060378
vt 0.625000 0.765625
vt 0.625000 0.774792
vt 0.572525 0.781250
vt 0.625000 0.375000
vt 0.572525 0.375000
vt 0.572525 0.343750
vt 0.625000 0.352938
vt 0.625000 0.397062
vt 0.572525 0.406250
vt 0.625000 0.406250
vt 0.625000 0.435012
vt 0.572525 0.437500
vt 0.427475 0.375000
vt 0.375000 0.375000
vt 0.375000 0.352938
vt 0.427475 0.343750
vt 0.427475 0.406250
vt 0.375000 0.397062
vt 0.375000 0.406250
vt 0.427475 0.437500
vt 0.375000 0.435012
vt 0.250000 0.000000
vt 0.250000 0.054148
vt 0.219975 0.054692
vt 0.218750 0.000000
vt 0.281250 0.000000
vt 0.280025 0.054692
vt 0.312500 0.000000
vt 0.310940 0.068550
vt 0.625000 0.864759
vt 0.572525 0.875000
vt 0.572525 0.843750
vt 0.625000 0.843750
vt 0.625000 0.885241
vt 0.625000 0.906250
vt 0.572525 0.906250
vt 0.625000 0.909101
vt 0.625000 0.937500
vt 0.572525 0.937500
vt 0.625000 0.312500
vt 0.572525 0.312500
vt 0.625000 0.284799
vt 0.625000 0.314988
vt 0.625000 0.343750
vt 0.427475 0.312500
vt 0.375000 0.312500
vt 0.375000 0.284799
vt 0.375000 0.314988
vt 0.375000 0.343750
vt 0.343750 0.000000
vt 0.342579 0.060378
vt 0.359375 0.000000
vt 0.358311 0.054258
vt 0.625000 0.940741
vt 0.625000 0.968750
vt 0.572525 0.968750
vt 0.625000 0.975208
vt 0.625000 0.984375
vt 0.625000 0.437500
vt 0.625000 0.465201
vt 0.572525 0.468750
vt 0.625000 0.468750
vt 0.625000 0.477461
vt 0.375000 0.437500
vt 0.427475 0.468750
vt 0.375000 0.465201
vt 0.375000 0.468750
vt 0.375000 0.477461
vt 0.187500 0.000000
vt 0.189060 0.068550
vt 0.625000 0.809259
vt 0.572525 0.812500
vt 0.625000 0.781250
vt 0.625000 0.812500
vt 0.625000 0.840899
vt 0.641689 0.054258
vt 0.639594 0.191833
vt 0.360406 0.191833
vt 0.250000 0.195914
vt 0.217526 0.180718
vt 0.427475 0.843750
vt 0.427475 0.875000
vt 0.750000 0.195913
vt 0.750000 0.054148
vt 0.780025 0.054692
vt 0.782474 0.180719
vt 0.314075 0.187541
vt 0.282474 0.180719
vt 0.427475 0.906250
vt 0.427475 0.937500
vt 0.685925 0.187542
vt 0.689060 0.068550
vt 0.719975 0.054692
vt 0.717526 0.180722
vt 0.185925 0.187540
vt 0.155081 0.196390
vt 0.427475 0.781250
vt 0.427475 0.812500
vt 0.814075 0.187541
vt 0.810940 0.068550
vt 0.842579 0.060378
vt 0.844919 0.196390
vt 0.139594 0.191833
vt 0.427475 0.765625
vt 0.858311 0.054258
vt 0.860406 0.191833
vt 0.344919 0.196390
vt 0.427475 0.968750
vt 0.655081 0.196390
vt 0.657421 0.060380
vt 0.127789 0.187257
vt 0.872464 0.056616
vt 0.872211 0.187257
vn 0.000000 1.000000 0.000000
vn 0.000000 1.000000 0.000000
vn 0.000000 1.000000 0.000000
vn 0.000000 1.000000 0.000000
vn 0.000000 0.000000 -1.000000
vn 0.000000 0.000000 -1.000000
vn 0.000000 0.000000 -1.000000
vn 0.000000 0.000000 -1.000000
vn 0.000000 -1.000000 0.000005
vn 0.000000 -1.000000 0.000005
vn 0.000000 -1.000000 0.000005
vn 0.000000 -1.000000 0.000005
vn 0.000000 -0.000000 1.000000
vn 0.000000 -0.000000 1.000000
vn 0.000000 -0.000000 1.000000
vn 0.000000 -0.000000 1.000000
vn 1.000000 0.000000 0.000000
vn 1.000000 0.000000 0.000000
vn 1.000000 0.000000 0.000000
vn 1.000000 0.000000 0.000000
vn -1.000000 0.000000 0.000000
vn -1.000000 0.000000 0.000000
vn -1.000000 0.000000 0.000000
vn -1.000000 0.000000 0.000000
vn -0.753331 0.397366 0.524016
vn -0.762427 0.437762 0.476517
vn -0.764232 0.350740 0.541231
vn -0.764133 0.351213 0.541064
vn -0.001337 0.785382 0.619010
vn -0.001337 0.785382 0.619010
vn -0.001337 0.785382 0.619010
vn -0.001337 0.785382 0.619010
vn -0.768028 0.545949 0.334772
vn -0.775011 0.549262 0.312521
vn -0.775011 0.549262 0.312521
vn 0.762931 0.435845 0.477469
vn 0.753387 0.397103 0.524136
vn 0.764136 0.351212 0.541060
vn 0.764235 0.350739 0.541227
vn 0.770628 0.539270 0.339589
vn 0.777818 0.542314 0.317639
vn 0.777818 0.542314 0.317639
vn -0.677432 -0.450386 -0.581583
vn -0.677432 -0.450386 -0.581583
vn -0.679790 -0.397171 -0.616556
vn -0.679781 -0.397629 -0.616270
vn -0.002721 0.299811 -0.953995
vn -0.002721 0.299811 -0.953995
vn -0.002721 0.299811 -0.953995
vn -0.002721 0.299811 -0.953995
vn 0.677431 -0.450387 -0.581583
vn 0.677431 -0.450387 -0.581583
vn 0.679781 -0.397629 -0.616270
vn 0.679789 -0.397170 -0.616557
vn -0.677428 0.450387 -0.581587
vn -0.677428 0.450387 -0.581586
vn -0.679778 0.397630 -0.616273
vn -0.679787 0.397173 -0.616558
vn 0.002722 -0.299811 -0.953995
vn 0.002722 -0.299811 -0.953995
vn 0.002722 -0.299811 -0.953995
vn 0.002722 -0.299811 -0.953995
vn -0.777817 -0.542316 0.317638
vn -0.777817 -0.542316 0.317638
vn -0.770627 -0.539272 0.339588
vn -0.762927 -0.435847 0.477473
vn 0.677427 0.450389 -0.581586
vn 0.677427 0.450389 -0.581586
vn 0.679786 0.397173 -0.616558
vn 0.679778 0.397630 -0.616273
vn 0.775012 -0.549259 0.312524
vn 0.775012 -0.549259 0.312524
vn 0.762432 -0.437759 0.476513
vn 0.768031 -0.545945 0.334772
vn -0.753381 -0.397105 0.524141
vn -0.764132 -0.351215 0.541065
vn -0.764231 -0.350742 0.541231
vn 0.001331 -0.785387 0.619004
vn 0.001331 -0.785387 0.619004
vn 0.001331 -0.785387 0.619003
vn 0.001331 -0.785387 0.619003
vn 0.753337 -0.397363 0.524010
vn 0.764232 -0.350742 0.541229
vn 0.764133 -0.351214 0.541063
vn -0.684728 -0.354111 -0.636988
vn -0.684295 -0.354253 -0.637374
vn 0.684295 -0.354253 -0.637374
vn 0.684728 -0.354110 -0.636988
vn -0.772089 -0.306766 0.556572
vn -0.772137 -0.306273 0.556777
vn 0.772137 -0.306273 0.556777
vn 0.772089 -0.306766 0.556572
vn 0.662613 -0.000000 -0.748962
vn 0.662614 -0.000000 -0.748962
vn 0.691372 -0.334138 -0.640591
vn 0.696541 -0.362495 -0.619215
vn 0.696541 0.362494 -0.619216
vn 0.691372 0.334138 -0.640591
vn 0.698274 0.402414 -0.592010
vn 0.700751 0.414895 -0.580354
vn -0.662614 -0.000000 -0.748961
vn -0.662614 -0.000000 -0.748961
vn -0.696541 -0.362495 -0.619215
vn -0.691372 -0.334139 -0.640590
vn -0.691372 0.334139 -0.640591
vn -0.696541 0.362496 -0.619216
vn -0.700750 0.414896 -0.580353
vn -0.698274 0.402415 -0.592010
vn -0.766595 0.000000 0.642130
vn -0.766595 0.000000 0.642130
vn -0.779280 -0.291188 0.554917
vn -0.781209 -0.311229 0.541155
vn -0.781210 0.311227 0.541154
vn -0.779281 0.291186 0.554916
vn -0.779531 0.349212 0.519984
vn -0.780974 0.361326 0.509434
vn 0.766596 -0.000000 0.642130
vn 0.766596 -0.000000 0.642130
vn 0.781209 -0.311229 0.541155
vn 0.779280 -0.291188 0.554916
vn 0.779281 0.291187 0.554916
vn 0.781210 0.311229 0.541154
vn 0.780973 0.361328 0.509434
vn 0.779530 0.349214 0.519983
vn 0.698274 -0.402414 -0.592010
vn 0.700751 -0.414895 -0.580353
vn -0.700751 -0.414896 -0.580353
vn -0.698274 -0.402415 -0.592010
vn -0.772092 0.306763 0.556571
vn -0.772139 0.306271 0.556776
vn 0.772139 0.306272 0.556776
vn 0.772091 0.306764 0.556571
vn 0.684295 0.354253 -0.637374
vn 0.684728 0.354111 -0.636988
vn -0.684728 0.354111 -0.636988
vn -0.684294 0.354254 -0.637374
vn -0.779530 -0.349214 0.519984
vn -0.780973 -0.361329 0.509434
vn 0.780973 -0.361329 0.509434
vn 0.779530 -0.349214 0.519984
vn 0.000002 1.000000 -0.000005
vn 0.000002 1.000000 -0.000005
vn 0.000002 1.000000 -0.000005
vn 0.000002 1.000000 -0.000005
vn 0.000000 -0.614211 -0.789142
vn 0.000000 -0.614211 -0.789142
vn 0.000000 -0.547305 -0.836933
vn 0.000000 -0.547305 -0.836933
vn -0.000000 -1.000000 -0.000001
vn -0.000000 -1.000000 -0.000001
vn -0.000000 -1.000000 -0.000001
vn -0.000000 -1.000000 -0.000001
vn -0.000001 0.545719 0.837968
vn -0.000001 0.545719 0.837968
vn -0.000003 0.599440 0.800420
vn -0.000003 0.599440 0.800420
vn 0.784022 0.387113 0.485234
vn 0.776434 0.325201 0.539810
vn 0.782277 0.368489 0.502254
vn 0.784022 0.387113 0.485234
vn -0.776435 0.325200 0.539809
vn -0.784026 0.387110 0.485230
vn -0.784026 0.387110 0.485230
vn -0.782280 0.368487 0.502251
vn -0.000001 0.000000 -1.000000
vn -0.000001 0.000000 -1.000000
vn -0.000000 0.478726 -0.877964
vn -0.000000 0.478726 -0.877964
vn -0.838701 -0.183664 0.512687
vn -0.874698 0.000000 0.484668
vn -0.874698 0.000000 0.484668
vn -0.675685 -0.421131 0.605060
vn 0.000003 -0.478734 0.877960
vn 0.000003 -0.478734 0.877960
vn 0.000003 0.000000 1.000000
vn 0.000003 0.000000 1.000000
vn 0.874698 0.000000 0.484669
vn 0.874698 0.000000 0.484669
vn 0.838700 -0.183665 0.512688
vn 0.675684 -0.421132 0.605062
vn 0.000000 -0.570803 -0.821087
vn 0.000000 -0.570803 -0.821087
vn -0.000000 -0.478726 -0.877964
vn -0.000000 -0.478726 -0.877964
vn -0.838701 0.183665 0.512688
vn -0.613366 0.485975 0.622584
vn -0.739282 0.341713 0.580254
vn -0.675684 0.421133 0.605060
vn 0.000003 0.478734 0.877960
vn 0.000003 0.478734 0.877960
vn 0.000001 0.567734 0.823212
vn 0.000001 0.567734 0.823212
vn 0.739281 0.341714 0.580254
vn 0.613365 0.485976 0.622585
vn 0.838700 0.183666 0.512689
vn 0.675682 0.421134 0.605061
vn 0.000000 0.570803 -0.821087
vn 0.000000 0.570803 -0.821087
vn 0.000000 0.484744 -0.874656
vn 0.000000 0.484744 -0.874656
vn -0.761952 -0.312477 0.567263
vn -0.613368 -0.485973 0.622583
vn -0.739283 -0.341713 0.580253
vn -0.769275 -0.312061 0.557525
vn 0.000000 -0.482506 0.875893
vn 0.000000 -0.482506 0.875893
vn 0.000001 -0.567734 0.823212
vn 0.000001 -0.567734 0.823212
vn 0.739282 -0.341714 0.580253
vn 0.613366 -0.485973 0.622585
vn 0.761952 -0.312478 0.567262
vn 0.769275 -0.312062 0.557524
vn 0.000000 0.547305 -0.836933
vn 0.000000 0.547305 -0.836933
vn -0.776436 -0.325199 0.539808
vn -0.782281 -0.368485 0.502251
vn -0.000002 -0.545719 0.837969
vn -0.000002 -0.545719 0.837969
vn 0.776436 -0.325200 0.539808
vn 0.782279 -0.368487 0.502252
vn 0.000000 -0.484744 -0.874656
vn 0.000000 -0.484744 -0.874656
vn -0.761952 0.312477 0.567264
vn -0.769274 0.312062 0.557526
vn 0.000000 0.482505 0.875893
vn 0.000000 0.482505 0.875893
vn 0.769274 0.312063 0.557526
vn 0.761951 0.312478 0.567263
vn 0.000000 0.614211 -0.789142
vn 0.000000 0.614211 -0.789142
vn -0.784027 -0.387108 0.485231
vn -0.784027 -0.387108 0.485231
vn -0.000003 -0.599438 0.800421
vn -0.000003 -0.599438 0.800421
vn 0.784025 -0.387110 0.485232
vn 0.784025 -0.387110 0.485232
vn -0.653236 0.284832 -0.701537
vn -0.653236 0.284832 -0.701537
vn -0.653236 0.284832 -0.701537
vn 0.659515 0.264087 -0.703774
vn 0.659515 0.264087 -0.703774
vn 0.659515 0.264087 -0.703774
vn -0.659521 -0.264089 -0.703768
vn -0.659521 -0.264089 -0.703768
vn -0.659521 -0.264089 -0.703768
vn 0.653233 -0.284835 -0.701538
vn 0.653233 -0.284835 -0.701538
vn 0.653233 -0.284835 -0.701538
s off
g Bow
usemtl initialShadingGroup
f 1/1/1 2/2/2 4/4/3 3/3/4
f 3/3/5 4/4/6 6/6/7 5/5/8
f 5/5/9 6/6/10 8/8/11 7/7/12
f 7/7/13 8/8/14 2/10/15 1/9/16
f 2/2/17 8/11/18 6/12/19 4/4/20
f 7/13/21 1/1/22 3/3/23 5/14/24
s 1
f 9/15/25 11/16/26 101/17/27 102/18/28
s off
f 10/19/29 9/20/30 14/21/31 13/22/32
s 1
f 11/23/26 10/19/33 16/24/34 15/25/35
s 2
f 12/26/36 14/27/37 103/28/38 104/29/39
f 13/22/40 12/30/36 20/31/41 19/32/42
s 3
f 15/33/43 17/34/44 33/35/45 34/36/46
s off
f 17/34/47 16/24/48 19/32/49 18/37/50
s 4
f 18/37/51 20/38/52 36/39/53 35/40/54
s 3
f 21/41/55 23/42/56 92/43/57 91/44/58
s off
f 22/45/59 21/41/60 26/46/61 25/47/62
s 1
f 23/48/63 22/45/64 28/49/65 27/50/66
s 4
f 24/51/67 26/46/68 89/52/69 90/53/70
s 2
f 25/47/71 24/54/72 32/55/73 31/56/74
s 1
f 27/57/66 29/58/75 38/59/76 37/60/77
s off
f 29/61/78 28/49/79 31/56/80 30/62/81
s 2
f 30/62/82 32/63/73 40/64/83 39/65/84
s 3
f 34/66/46 33/35/45 99/67/85 100/68/86
s 4
f 35/40/54 36/69/53 97/70/87 98/71/88
s 1
f 37/60/77 38/59/76 93/72/89 94/73/90
s 2
f 39/65/84 40/74/83 95/75/91 96/76/92
s 4
f 41/77/93 42/78/94 59/79/95 60/80/96
f 42/78/94 41/77/93 44/81/97 43/82/98
f 43/82/98 44/83/97 73/84/99 74/85/100
s 3
f 45/86/101 46/87/102 64/88/103 63/89/104
f 46/87/102 45/86/101 47/90/105 48/91/106
f 48/92/106 47/90/105 77/93/107 78/94/108
s 1
f 49/95/109 50/96/110 83/97/111 84/98/112
f 50/96/110 49/95/109 52/99/113 51/100/114
f 51/100/114 52/99/113 65/101/115 66/102/116
s 2
f 53/103/117 54/104/118 87/105/119 88/106/120
f 54/104/118 53/107/117 56/108/121 55/109/122
f 55/109/122 56/110/121 69/111/123 70/112/124
s 4
f 57/113/125 58/114/126 98/71/88 97/115/87
f 58/114/126 57/116/125 60/117/96 59/79/95
s 3
f 61/118/127 62/119/128 100/120/86 99/67/85
f 62/121/128 61/118/127 63/89/104 64/122/103
s 1
f 66/102/116 65/101/115 68/123/129 67/124/130
f 67/124/130 68/123/129 102/125/28 101/126/27
s 2
f 70/112/124 69/127/123 72/128/131 71/129/132
f 71/129/132 72/130/131 104/131/39 103/28/38
s 4
f 74/85/100 73/132/99 76/133/133 75/134/134
f 75/134/134 76/135/133 90/136/70 89/52/69
s 3
f 78/137/108 77/93/107 79/138/135 80/139/136
f 80/140/136 79/138/135 91/44/58 92/141/57
s 1
f 81/142/137 82/143/138 94/73/90 93/72/89
f 82/143/138 81/142/137 84/98/112 83/97/111
s 2
f 85/144/139 86/145/140 96/76/92 95/146/91
f 86/145/140 85/147/139 88/148/120 87/105/119
s off
f 10/19/141 13/22/142 19/32/143 16/24/144
s 13
f 17/34/145 18/37/146 35/40/147 33/35/148
s off
f 22/45/149 25/47/150 31/56/151 28/49/152
s 14
f 102/18/153 103/28/154 14/27/155 9/15/156
s 15
f 12/30/157 104/149/158 36/150/159 20/31/160
s 16
f 101/126/161 11/23/162 15/25/163 34/151/164
s 13
f 45/86/165 42/78/166 43/82/167 47/90/168
s 16
f 83/97/169 50/96/170 46/152/171 48/153/172
s 14
f 84/154/173 87/105/174 54/104/175 49/155/176
s 15
f 41/156/177 53/157/178 88/158/179 44/159/180
s 13
f 61/118/181 58/114/182 59/79/183 63/89/184
s 16
f 51/100/185 66/102/186 62/160/187 64/161/188
s 14
f 52/162/189 55/109/190 70/112/191 65/163/192
s 15
f 57/164/193 69/165/194 56/166/195 60/167/196
s 13
f 77/93/197 74/85/198 75/134/199 79/138/200
s 16
f 94/73/201 82/143/202 78/168/203 80/169/204
s 14
f 93/170/205 96/76/206 86/145/207 81/171/208
s 15
f 73/172/209 85/173/210 95/174/211 76/175/212
s 13
f 79/138/200 75/134/199 89/52/213 91/44/214
s 16
f 37/60/215 94/73/201 80/169/204 92/176/216
s 14
f 38/177/217 39/65/218 96/76/206 93/170/205
s 15
f 76/175/212 95/174/211 40/178/219 90/179/220
s 13
f 99/67/221 98/71/222 58/114/182 61/118/181
s 16
f 66/102/186 67/124/223 100/180/224 62/160/187
s 14
f 65/163/192 70/112/191 71/129/225 68/181/226
s 15
f 97/182/227 72/183/228 69/165/194 57/164/193
s 13
f 63/89/184 59/79/183 42/78/166 45/86/165
s 16
f 50/96/170 51/100/185 64/161/188 46/152/171
s 14
f 49/155/176 54/104/175 55/109/190 52/162/189
s 15
f 60/167/196 56/166/195 53/157/178 41/156/177
s 13
f 47/90/168 43/82/167 74/85/198 77/93/197
s 16
f 82/143/202 83/97/169 48/153/172 78/168/203
s 14
f 81/171/208 86/145/207 87/105/174 84/154/173
s 15
f 44/159/180 88/158/179 85/173/210 73/172/209
s 13
f 91/44/214 89/52/213 26/46/229 21/41/230
s 16
f 27/57/231 37/60/215 92/176/216 23/184/232
s 14
f 29/61/233 30/62/234 39/65/218 38/177/217
s 15
f 90/179/220 40/178/219 32/185/235 24/186/236
s 13
f 33/35/148 35/40/147 98/71/222 99/67/221
s 16
f 67/124/223 101/126/161 34/151/164 100/180/224
s 14
f 68/181/226 71/129/225 103/28/154 102/18/153
s 15
f 36/150/159 104/149/158 72/183/228 97/182/227
s 1
f 9/20/25 10/19/33 11/23/26
s 2
f 12/30/36 13/22/40 14/21/37
s off
f 15/25/237 16/24/238 17/34/239
f 18/37/240 19/32/241 20/31/242
f 21/41/243 22/45/244 23/48/245
f 24/54/246 25/47/247 26/46/248
s 1
f 27/50/66 28/49/65 29/61/75
s 2
f 30/62/82 31/56/74 32/55/73
