# This file uses centimeters as units for non-parametric coordinates.

mtllib FenceTip.mtl
g default
v -2.500000 -0.000000 2.500000
v 2.500000 -0.000000 2.500000
v -2.500000 -0.000000 -2.500000
v 2.500000 -0.000000 -2.500000
v -2.500000 18.750126 2.500000
v -1.250122 20.000000 1.250126
v 1.250122 20.000000 1.250126
v 2.500000 18.750126 2.500000
v -1.250122 20.000000 -1.250126
v -2.500000 18.750126 -2.500000
v 1.250122 20.000000 -1.250126
v 2.500000 18.750126 -2.500000
vt 1.134210 -0.000000
vt 2.134210 -0.000000
vt 2.134210 1.000000
vt 1.134210 1.000000
vt 1.134210 0.000000
vt 1.134210 1.000000
vt 0.249975 1.000000
vt 1.000000 0.937506
vt 0.750025 1.000000
vt 2.134210 0.000000
vt 1.384185 0.750025
vt 2.134210 1.000000
vt 0.000000 -0.000000
vt 1.000000 -0.000000
vt 0.000000 0.937506
vt 1.384185 0.249975
vt 1.884235 0.249975
vt 1.884235 0.750025
vt 1.000000 0.937506
vt 0.000000 0.937506
vt 0.000000 -0.000000
vt 1.000000 -0.000000
vt 0.000000 -0.000000
vt 1.000000 -0.000000
vt 1.000000 0.937506
vt 0.000000 0.937506
vt 0.000000 -0.000000
vt 1.000000 -0.000000
vt 1.000000 0.937506
vt 0.000000 0.937506
vn 0.000000 -1.000000 0.000000
vn 0.000000 -1.000000 0.000000
vn 0.000000 -1.000000 0.000000
vn 0.000000 -1.000000 0.000000
vn -0.707106 0.707108 0.000000
vn -0.707106 0.707108 0.000000
vn -0.707106 0.707108 0.000000
vn -0.707106 0.707108 0.000000
vn 0.000000 0.707107 0.707107
vn 0.000000 0.707107 0.707107
vn 0.000000 0.707107 0.707107
vn 0.000000 0.707107 0.707107
vn 0.707106 0.707108 0.000000
vn 0.707106 0.707108 0.000000
vn 0.707106 0.707108 0.000000
vn 0.707106 0.707108 0.000000
vn 0.000000 0.707107 -0.707107
vn 0.000000 0.707107 -0.707107
vn 0.000000 0.707107 -0.707107
vn 0.000000 0.707107 -0.707107
vn 0.000000 0.000000 1.000000
vn 0.000000 0.000000 1.000000
vn 0.000000 0.000000 1.000000
vn 0.000000 0.000000 1.000000
vn 0.000000 1.000000 0.000000
vn 0.000000 1.000000 0.000000
vn 0.000000 1.000000 0.000000
vn 0.000000 1.000000 0.000000
vn 0.000000 0.000000 -1.000000
vn 0.000000 0.000000 -1.000000
vn 0.000000 0.000000 -1.000000
vn 0.000000 0.000000 -1.000000
vn 1.000000 0.000000 0.000000
vn 1.000000 0.000000 0.000000
vn 1.000000 0.000000 0.000000
vn 1.000000 0.000000 0.000000
vn -1.000000 0.000000 0.000000
vn -1.000000 0.000000 0.000000
vn -1.000000 0.000000 0.000000
vn -1.000000 0.000000 0.000000
s off
g FenceTip
usemtl blinn3SG
f 3/1/1 4/2/2 2/3/3 1/4/4
f 5/5/5 6/16/6 9/11/7 10/6/8
f 6/7/9 5/15/10 8/8/11 7/9/12
f 7/17/13 8/10/14 12/12/15 11/18/16
f 10/6/17 9/11/18 11/18/19 12/12/20
f 1/13/21 2/14/22 8/8/23 5/15/24
f 6/16/25 7/17/26 11/18/27 9/11/28
f 10/19/29 12/20/30 4/21/31 3/22/32
f 2/23/33 4/24/34 12/25/35 8/26/36
f 3/27/37 1/28/38 5/29/39 10/30/40
