# This file uses centimeters as units for non-parametric coordinates.

mtllib PartofFence.mtl
g default
v 10.500000 28.000000 2.000000
v 10.500000 32.000000 2.000000
v -5.500000 28.000000 2.000000
v -5.500001 32.000000 2.000000
v -5.500000 28.000000 -2.000000
v -5.500001 32.000000 -2.000000
v 10.500000 28.000000 -2.000000
v 10.500000 32.000000 -2.000000
v -10.500000 20.000000 2.500000
v -5.500000 20.000000 2.500000
v -10.500000 20.000000 -2.500000
v -5.500000 20.000000 -2.500000
v -10.500000 38.750126 2.500000
v -9.250125 40.000000 1.250125
v -6.749875 40.000000 1.250125
v -5.500000 38.750126 2.500000
v -9.250125 40.000000 -1.250125
v -10.500000 38.750126 -2.500000
v -6.749875 40.000000 -1.250125
v -5.500000 38.750126 -2.500000
v 10.500000 8.000000 2.000000
v 10.500000 12.000000 2.000000
v -5.500000 8.000000 2.000000
v -5.500000 12.000000 2.000000
v -5.500000 8.000000 -2.000000
v -5.500000 12.000000 -2.000000
v 10.500000 8.000000 -2.000000
v 10.500000 12.000000 -2.000000
v -10.500000 -0.000000 2.500000
v -5.500000 -0.000000 2.500000
v -10.500000 20.000000 2.500000
v -5.500000 20.000000 2.500000
v -10.500000 20.000000 -2.500000
v -5.500000 20.000000 -2.500000
v -10.500000 -0.000000 -2.500000
v -5.500000 -0.000000 -2.500000
vt 0.000000 -0.000000
vt 0.000000 -0.000000
vt 1.134210 0.000000
vt 2.134210 0.000000
vt 2.134210 1.000000
vt 1.134210 1.000000
vt 1.134210 -0.000000
vt 2.134210 -0.000000
vt 2.134210 1.000000
vt 1.134210 1.000000
vt 1.000000 -0.000000
vt 1.000000 1.000000
vt 1.000000 -0.000000
vt 1.000000 1.000000
vt 0.000000 -0.000000
vt 1.000000 -0.000000
vt 1.000000 1.000000
vt 0.000000 1.000000
vt 0.000000 1.000000
vt 1.000000 1.000000
vt 0.000000 1.000000
vt 0.000000 -0.000000
vt 1.000000 -0.000000
vt 0.000000 1.000000
vt 1.134210 -0.000000
vt 2.134210 -0.000000
vt 2.134210 1.000000
vt 1.134210 1.000000
vt 1.134210 0.000000
vt 1.384185 0.249975
vt 1.384185 0.750025
vt 1.134210 1.000000
vt 0.249975 1.000000
vt 0.000000 0.937506
vt 1.000000 0.937506
vt 0.750025 1.000000
vt 1.884235 0.249975
vt 2.134210 0.000000
vt 2.134210 1.000000
vt 1.884235 0.750025
vt 0.000000 -0.000000
vt 1.000000 -0.000000
vt 1.000000 0.937506
vt 0.000000 0.937506
vt 0.000000 -0.000000
vt 1.000000 -0.000000
vt 0.000000 -0.000000
vt 1.000000 -0.000000
vt 1.000000 0.937506
vt 0.000000 0.937506
vt 0.000000 -0.000000
vt 1.000000 -0.000000
vt 1.000000 0.937506
vt 0.000000 0.937506
vt 0.000000 -0.000000
vt 1.000000 -0.000000
vt 1.000000 1.000000
vt 0.000000 1.000000
vt 1.134210 0.000000
vt 2.134210 0.000000
vt 2.134210 1.000000
vt 1.134210 1.000000
vt 1.000000 1.000000
vt 0.000000 1.000000
vt 0.000000 -0.000000
vt 1.000000 -0.000000
vt 1.134210 -0.000000
vt 2.134210 -0.000000
vt 2.134210 1.000000
vt 1.134210 1.000000
vt 0.000000 -0.000000
vt 1.000000 -0.000000
vt 1.000000 1.000000
vt 0.000000 1.000000
vt 0.000000 -0.000000
vt 1.000000 -0.000000
vt 1.000000 1.000000
vt 0.000000 1.000000
vt 0.000000 -0.000000
vt 1.000000 -0.000000
vt 1.000000 1.000000
vt 0.000000 1.000000
vt 1.134210 0.000000
vt 2.134210 0.000000
vt 2.134210 1.000000
vt 1.134210 1.000000
vt 1.000000 1.000000
vt 0.000000 1.000000
vt 0.000000 -0.000000
vt 1.000000 -0.000000
vt 1.134210 -0.000000
vt 2.134210 -0.000000
vt 2.134210 1.000000
vt 1.134210 1.000000
vt 0.000000 -0.000000
vt 1.000000 -0.000000
vt 1.000000 1.000000
vt 0.000000 1.000000
vt 0.000000 -0.000000
vt 1.000000 -0.000000
vt 1.000000 1.000000
vt 0.000000 1.000000
vn 0.000000 0.000000 1.000000
vn 0.000000 0.000000 1.000000
vn 0.000000 0.000000 1.000000
vn 0.000000 0.000000 1.000000
vn -1.000000 -0.000000 0.000000
vn -1.000000 -0.000000 0.000000
vn -1.000000 -0.000000 0.000000
vn -1.000000 -0.000000 0.000000
vn 0.000000 0.000000 -1.000000
vn 0.000000 0.000000 -1.000000
vn 0.000000 0.000000 -1.000000
vn 0.000000 0.000000 -1.000000
vn 1.000000 0.000000 0.000000
vn 1.000000 0.000000 0.000000
vn 1.000000 0.000000 0.000000
vn 1.000000 0.000000 0.000000
vn 0.000000 1.000000 0.000000
vn 0.000000 1.000000 0.000000
vn 0.000000 1.000000 0.000000
vn 0.000000 1.000000 0.000000
vn 0.000000 -1.000000 0.000000
vn 0.000000 -1.000000 0.000000
vn 0.000000 -1.000000 0.000000
vn 0.000000 -1.000000 0.000000
vn 0.000000 -1.000000 0.000000
vn 0.000000 -1.000000 0.000000
vn 0.000000 -1.000000 0.000000
vn 0.000000 -1.000000 0.000000
vn -0.707107 0.707107 0.000000
vn -0.707107 0.707107 0.000000
vn -0.707107 0.707107 0.000000
vn -0.707107 0.707107 0.000000
vn 0.000000 0.707107 0.707107
vn 0.000000 0.707107 0.707107
vn 0.000000 0.707107 0.707107
vn 0.000000 0.707107 0.707107
vn 0.707106 0.707107 0.000000
vn 0.707106 0.707107 0.000000
vn 0.707106 0.707107 0.000000
vn 0.707106 0.707107 0.000000
vn 0.000000 0.707107 -0.707106
vn 0.000000 0.707107 -0.707106
vn 0.000000 0.707107 -0.707106
vn 0.000000 0.707107 -0.707106
vn 0.000000 0.000000 1.000000
vn 0.000000 0.000000 1.000000
vn 0.000000 0.000000 1.000000
vn 0.000000 0.000000 1.000000
vn 0.000000 1.000000 0.000000
vn 0.000000 1.000000 0.000000
vn 0.000000 1.000000 0.000000
vn 0.000000 1.000000 0.000000
vn 0.000000 0.000000 -1.000000
vn 0.000000 0.000000 -1.000000
vn 0.000000 0.000000 -1.000000
vn 0.000000 0.000000 -1.000000
vn 1.000000 0.000000 0.000000
vn 1.000000 0.000000 0.000000
vn 1.000000 0.000000 0.000000
vn 1.000000 0.000000 0.000000
vn -1.000000 0.000000 0.000000
vn -1.000000 0.000000 0.000000
vn -1.000000 0.000000 0.000000
vn -1.000000 0.000000 0.000000
vn 0.000000 0.000000 1.000000
vn 0.000000 0.000000 1.000000
vn 0.000000 0.000000 1.000000
vn 0.000000 0.000000 1.000000
vn -1.000000 0.000000 0.000000
vn -1.000000 0.000000 0.000000
vn -1.000000 0.000000 0.000000
vn -1.000000 0.000000 0.000000
vn 0.000000 0.000000 -1.000000
vn 0.000000 0.000000 -1.000000
vn 0.000000 0.000000 -1.000000
vn 0.000000 0.000000 -1.000000
vn 1.000000 0.000000 0.000000
vn 1.000000 0.000000 0.000000
vn 1.000000 0.000000 0.000000
vn 1.000000 0.000000 0.000000
vn 0.000000 1.000000 0.000000
vn 0.000000 1.000000 0.000000
vn 0.000000 1.000000 0.000000
vn 0.000000 1.000000 0.000000
vn 0.000000 -1.000000 0.000000
vn 0.000000 -1.000000 0.000000
vn 0.000000 -1.000000 0.000000
vn 0.000000 -1.000000 0.000000
vn 0.000000 0.000000 1.000000
vn 0.000000 0.000000 1.000000
vn 0.000000 0.000000 1.000000
vn 0.000000 0.000000 1.000000
vn 0.000000 1.000000 0.000000
vn 0.000000 1.000000 0.000000
vn 0.000000 1.000000 0.000000
vn 0.000000 1.000000 0.000000
vn 0.000000 0.000000 -1.000000
vn 0.000000 0.000000 -1.000000
vn 0.000000 0.000000 -1.000000
vn 0.000000 0.000000 -1.000000
vn 0.000000 -1.000000 0.000000
vn 0.000000 -1.000000 0.000000
vn 0.000000 -1.000000 0.000000
vn 0.000000 -1.000000 0.000000
vn 1.000000 0.000000 0.000000
vn 1.000000 0.000000 0.000000
vn 1.000000 0.000000 0.000000
vn 1.000000 0.000000 0.000000
vn -1.000000 0.000000 0.000000
vn -1.000000 0.000000 0.000000
vn -1.000000 0.000000 0.000000
vn -1.000000 0.000000 0.000000
s off
g pCube86
usemtl blinn3SG
f 1/15/1 2/16/2 4/17/3 3/18/4
f 3/3/5 4/4/6 6/5/7 5/6/8
f 5/20/9 6/21/10 8/22/11 7/23/12
f 7/7/13 8/8/14 2/9/15 1/10/16
f 2/2/17 8/11/18 6/12/19 4/19/20
f 7/1/21 1/13/22 3/14/23 5/24/24
f 11/25/25 12/26/26 10/27/27 9/28/28
f 13/29/29 14/30/30 17/31/31 18/32/32
f 14/33/33 13/34/34 16/35/35 15/36/36
f 15/37/37 16/38/38 20/39/39 19/40/40
f 18/32/41 17/31/42 19/40/43 20/39/44
f 9/41/45 10/42/46 16/35/47 13/34/48
f 14/30/49 15/37/50 19/40/51 17/31/52
f 18/43/53 20/44/54 12/45/55 11/46/56
f 10/47/57 12/48/58 20/49/59 16/50/60
f 11/51/61 9/52/62 13/53/63 18/54/64
f 21/55/65 22/56/66 24/57/67 23/58/68
f 23/59/69 24/60/70 26/61/71 25/62/72
f 25/63/73 26/64/74 28/65/75 27/66/76
f 27/67/77 28/68/78 22/69/79 21/70/80
f 22/71/81 28/72/82 26/73/83 24/74/84
f 27/75/85 21/76/86 23/77/87 25/78/88
f 29/79/89 30/80/90 32/81/91 31/82/92
f 31/83/93 32/84/94 34/85/95 33/86/96
f 33/87/97 34/88/98 36/89/99 35/90/100
f 35/91/101 36/92/102 30/93/103 29/94/104
f 30/95/105 36/96/106 34/97/107 32/98/108
f 35/99/109 29/100/110 31/101/111 33/102/112
