# This file uses centimeters as units for non-parametric coordinates.

mtllib SmallGroupBush.mtl
g default
v -12.531372 4.699340 10.367155
v -3.329132 4.699340 10.367154
v -12.531372 9.469072 10.367155
v -3.329132 9.469072 10.367155
v -12.531372 9.469072 1.164906
v -3.329132 9.469072 1.164906
v -12.531372 4.699340 1.164906
v -3.329132 4.699340 1.164906
v -15.192230 0.000000 13.028008
v -0.668243 0.000000 13.028008
v -0.668243 4.235319 13.028008
v -15.192230 4.235319 13.028008
v -15.192230 4.235319 -1.495948
v -0.668243 4.235319 -1.495948
v -0.668243 0.000000 -1.495948
v -15.192230 0.000000 -1.495948
v -7.930237 5.508827 11.733963
v -13.898193 5.508827 5.766030
v 1.752411 0.000000 5.766030
v 1.752411 4.235319 5.766030
v -17.612885 0.000000 5.766030
v -17.612885 4.235319 5.766030
v -1.353363 2.386515 12.342926
v -14.507141 2.386515 12.342926
v -14.507141 7.555048 12.342926
v -1.353363 7.555048 12.342926
v -1.353363 7.555048 -0.810865
v -14.507141 7.555048 -0.810865
v -14.507141 2.386515 -0.810865
v -1.353363 2.386515 -0.810865
v -7.930237 0.000000 15.448668
v -0.439911 1.166619 13.256370
v -7.930237 4.235319 15.448668
v -15.420593 1.166619 13.256370
v -7.930237 10.138983 11.733963
v -1.962311 10.138983 5.766030
v -7.930237 10.138983 -0.201902
v -13.898193 10.138983 5.766030
v -7.930237 4.235319 -3.916608
v -0.439911 1.166618 -1.724309
v -7.930237 0.000000 -3.916608
v -15.420593 1.166618 -1.724309
v -7.930237 5.508827 -0.201902
v -1.962311 5.508827 5.766030
v -7.930237 1.166618 15.753149
v -7.930237 11.000294 5.766030
v -7.930237 1.166619 -4.221088
v -7.930237 6.549598 5.766030
v 2.056854 1.166618 5.766030
v -17.917358 1.166618 5.766030
v -7.930237 2.386516 14.535223
v -7.930237 7.555048 14.535223
v -7.930237 7.555048 -3.003163
v -7.930237 2.386516 -3.003163
v 0.838959 2.386516 5.766030
v 0.838959 7.555048 5.766030
v -16.699432 2.386516 5.766030
v -16.699432 7.555048 5.766030
v -5.128052 6.740694 5.685054
v 7.058289 6.740694 5.685054
v -5.128052 13.057159 5.685055
v 7.058289 13.057159 5.685054
v -5.128052 13.057159 -6.501308
v 7.058289 13.057159 -6.501307
v -5.128052 6.740694 -6.501308
v 7.058289 6.740694 -6.501308
v -8.651794 0.517447 9.208773
v 10.582031 0.517447 9.208773
v 10.582031 6.126197 9.208772
v -8.651794 6.126197 9.208773
v -8.651794 6.126197 -10.025026
v 10.582031 6.126197 -10.025026
v 10.582031 0.517447 -10.025025
v -8.651794 0.517447 -10.025026
v 0.965118 7.812681 7.495092
v -6.938110 7.812681 -0.408127
v 13.787659 0.517447 -0.408127
v 13.787659 6.126197 -0.408127
v -11.857422 0.517447 -0.408127
v -11.857422 6.126197 -0.408127
v 9.674774 3.677863 8.301530
v -7.744537 3.677863 8.301530
v -7.744537 10.522453 8.301530
v 9.674774 10.522453 8.301530
v 9.674774 10.522453 -9.117784
v -7.744537 10.522453 -9.117784
v -7.744537 3.677863 -9.117784
v 9.674774 3.677863 -9.117784
v 0.965118 0.517447 12.414406
v 10.884430 2.062377 9.511187
v 0.965118 6.126197 12.414406
v -8.954193 2.062377 9.511187
v 0.965118 13.944309 7.495092
v 8.868347 13.944309 -0.408127
v 0.965118 13.944309 -8.311346
v -6.938110 13.944309 -0.408127
v 0.965118 6.126197 -13.230659
v 10.884430 2.062376 -10.327440
v 0.965118 0.517447 -13.230659
v -8.954193 2.062376 -10.327440
v 0.965118 7.812681 -8.311346
v 8.868347 7.812681 -0.408127
v 0.965118 2.062377 12.817624
v 0.965118 15.084925 -0.408127
v 0.965118 2.062377 -13.633878
v 0.965118 9.190954 -0.408127
v 14.190857 2.062377 -0.408127
v -12.260620 2.062377 -0.408127
v 0.965118 3.677864 11.204748
v 0.965118 10.522453 11.204748
v 0.965118 10.522453 -12.021002
v 0.965118 3.677864 -12.021002
v 12.578003 3.677864 -0.408127
v 12.578003 10.522453 -0.408127
v -10.647766 3.677864 -0.408127
v -10.647766 10.522453 -0.408127
v 3.329132 4.699340 -1.164919
v 12.531342 4.699340 -1.164920
v 3.329132 9.469072 -1.164919
v 12.531342 9.469072 -1.164919
v 3.329132 9.469072 -10.367168
v 12.531342 9.469072 -10.367167
v 3.329132 4.699340 -10.367168
v 12.531342 4.699340 -10.367168
v 0.668243 0.000000 1.495935
v 15.192230 0.000000 1.495935
v 15.192230 4.235319 1.495934
v 0.668243 4.235319 1.495935
v 0.668243 4.235319 -13.028023
v 15.192230 4.235319 -13.028023
v 15.192230 0.000000 -13.028022
v 0.668243 0.000000 -13.028023
v 7.930237 5.508827 0.201889
v 1.962280 5.508827 -5.766044
v 17.612885 0.000000 -5.766044
v 17.612885 4.235319 -5.766044
v -1.752411 0.000000 -5.766044
v -1.752411 4.235319 -5.766044
v 14.507141 2.386515 0.810852
v 1.353333 2.386515 0.810852
v 1.353333 7.555048 0.810852
v 14.507141 7.555048 0.810852
v 14.507141 7.555048 -12.342939
v 1.353333 7.555048 -12.342939
v 1.353333 2.386515 -12.342939
v 14.507141 2.386515 -12.342939
v 7.930237 0.000000 3.916595
v 15.420563 1.166619 1.724296
v 7.930237 4.235319 3.916595
v 0.439880 1.166619 1.724296
v 7.930237 10.138983 0.201889
v 13.898163 10.138983 -5.766044
v 7.930237 10.138983 -11.733976
v 1.962280 10.138983 -5.766044
v 7.930237 4.235319 -15.448682
v 15.420563 1.166618 -13.256383
v 7.930237 0.000000 -15.448682
v 0.439880 1.166618 -13.256383
v 7.930237 5.508827 -11.733976
v 13.898163 5.508827 -5.766044
v 7.930237 1.166618 4.221075
v 7.930237 11.000294 -5.766044
v 7.930237 1.166619 -15.753162
v 7.930237 6.549598 -5.766044
v 17.917328 1.166618 -5.766044
v -2.056885 1.166618 -5.766044
v 7.930237 2.386516 3.003149
v 7.930237 7.555048 3.003149
v 7.930237 7.555048 -14.535236
v 7.930237 2.386516 -14.535236
v 16.699432 2.386516 -5.766044
v 16.699432 7.555048 -5.766044
v -0.838959 2.386516 -5.766044
v -0.838959 7.555048 -5.766044
vt 0.117868 0.252869
vt 0.117868 0.252869
vt 0.117868 0.252869
vt 0.882132 0.252869
vt 0.269647 0.269647
vt 0.730353 0.269647
vt 0.269647 0.730353
vt 0.730353 0.730353
vt 0.882132 0.252869
vt 0.117868 0.252869
vt 0.882132 0.252869
vt 0.882132 0.252869
vt -0.005398 0.000215
vt -0.005398 0.000215
vt 1.005398 0.000215
vt -0.005398 0.000215
vt 1.005398 0.178834
vt -0.005398 0.178834
vt 1.000000 0.000000
vt -0.005398 0.178834
vt 0.000000 0.000000
vt -0.005398 0.178834
vt -0.005398 0.178834
vt 1.005398 0.178834
vt 0.000000 1.000000
vt 1.005398 0.178834
vt 1.000000 1.000000
vt 1.005398 0.178834
vt 1.005398 0.000215
vt 1.005398 0.000215
vt -0.005398 0.000215
vt 1.005398 0.000215
vt 0.500000 0.089525
vt 0.500000 0.500000
vt 0.500000 0.089525
vt 0.500000 0.252869
vt 0.500000 0.089525
vt 0.500000 0.089525
vt 0.500000 0.126542
vt 0.500000 0.060975
vt 0.500000 0.939025
vt 0.500000 0.126542
vt 0.500000 0.126542
vt 0.939025 0.500000
vt 0.500000 0.126542
vt 0.060975 0.500000
vt 0.500000 0.054124
vt 1.005398 0.089525
vt -0.005398 0.089525
vt 0.500000 0.178834
vt 0.500000 0.000000
vt -0.005398 0.089525
vt -0.005398 0.089525
vt 0.500000 0.201219
vt 0.798782 0.500000
vt 0.500000 0.798781
vt 0.201218 0.500000
vt 0.500000 0.178834
vt 0.500000 1.000000
vt 1.005398 0.089525
vt 1.005398 0.089525
vt 0.500000 0.054124
vt -0.005398 0.089525
vt 1.005398 0.089525
vt 0.882132 0.252869
vt 0.500000 0.252869
vt 0.500000 0.221287
vt 0.117868 0.252869
vt 0.500000 0.252869
vt 0.500000 0.221287
vt 0.500000 0.054124
vt 0.500000 0.178834
vt 1.000000 0.500000
vt 0.500000 0.054124
vt 0.500000 0.178834
vt 0.000000 0.500000
vt 0.943765 0.126542
vt 0.056235 0.126542
vt 0.056235 0.126542
vt 0.056235 0.126542
vt 0.170731 0.170731
vt 0.829269 0.170731
vt 0.829269 0.829269
vt 0.170731 0.829269
vt 0.056235 0.126542
vt 0.943765 0.126542
vt 0.943765 0.126542
vt 0.943765 0.126542
vt -0.005398 0.000215
vt 0.500000 0.054124
vt 0.500000 0.089525
vt -0.005398 0.089525
vt 1.005398 0.000215
vt 1.005398 0.089525
vt 1.005398 0.178834
vt 0.500000 0.178834
vt -0.005398 0.178834
vt 0.269647 0.269647
vt 0.500000 0.201219
vt 0.500000 0.500000
vt 0.201218 0.500000
vt 0.730353 0.269647
vt 0.798782 0.500000
vt 0.730353 0.730353
vt 0.500000 0.798781
vt 0.269647 0.730353
vt -0.005398 0.178834
vt 0.500000 0.178834
vt 0.500000 0.089525
vt -0.005398 0.089525
vt 1.005398 0.178834
vt 1.005398 0.089525
vt 1.005398 0.000215
vt 0.500000 0.054124
vt -0.005398 0.000215
vt 0.882132 0.252869
vt 0.882132 0.252869
vt 0.500000 0.252869
vt 0.500000 0.221287
vt 0.882132 0.252869
vt 0.500000 0.221287
vt 0.117868 0.252869
vt 0.117868 0.252869
vt 0.117868 0.252869
vt -0.005398 0.000215
vt 0.500000 0.054124
vt 0.500000 0.089525
vt -0.005398 0.089525
vt 1.005398 0.000215
vt 1.005398 0.089525
vt 1.005398 0.178834
vt 0.500000 0.178834
vt -0.005398 0.178834
vt 1.005398 0.000215
vt 0.500000 0.054124
vt 0.500000 0.089525
vt 1.005398 0.089525
vt -0.005398 0.000215
vt -0.005398 0.089525
vt -0.005398 0.178834
vt 0.500000 0.178834
vt 1.005398 0.178834
vt 0.117868 0.252869
vt 0.500000 0.252869
vt 0.500000 0.126542
vt 0.056235 0.126542
vt 0.882132 0.252869
vt 0.943765 0.126542
vt 0.500000 0.060975
vt 0.829269 0.170731
vt 0.170731 0.170731
vt 0.000000 0.000000
vt 0.500000 0.000000
vt 1.000000 0.000000
vt 0.500000 0.939025
vt 0.170731 0.829269
vt 0.829269 0.829269
vt 1.000000 1.000000
vt 0.500000 1.000000
vt 0.000000 1.000000
vt 0.882132 0.252869
vt 0.500000 0.252869
vt 0.500000 0.126542
vt 0.943765 0.126542
vt 0.117868 0.252869
vt 0.056235 0.126542
vt 0.500000 0.126542
vt 0.056235 0.126542
vt 0.943765 0.126542
vt 0.939025 0.500000
vt 1.000000 0.500000
vt 0.500000 0.126542
vt 0.943765 0.126542
vt 0.056235 0.126542
vt 0.060975 0.500000
vt 0.000000 0.500000
vt -0.005398 0.000215
vt 0.500000 0.054124
vt 0.500000 0.089525
vt -0.005398 0.089525
vt 1.005398 0.000215
vt 1.005398 0.089525
vt 1.005398 0.178834
vt 0.500000 0.178834
vt -0.005398 0.178834
vt 0.269647 0.269647
vt 0.500000 0.201219
vt 0.500000 0.500000
vt 0.201218 0.500000
vt 0.730353 0.269647
vt 0.798782 0.500000
vt 0.730353 0.730353
vt 0.500000 0.798781
vt 0.269647 0.730353
vt -0.005398 0.178834
vt 0.500000 0.178834
vt 0.500000 0.089525
vt -0.005398 0.089525
vt 1.005398 0.178834
vt 1.005398 0.089525
vt 1.005398 0.000215
vt 0.500000 0.054124
vt -0.005398 0.000215
vt 0.882132 0.252869
vt 0.882132 0.252869
vt 0.500000 0.252869
vt 0.500000 0.221287
vt 0.882132 0.252869
vt 0.500000 0.221287
vt 0.117868 0.252869
vt 0.117868 0.252869
vt 0.117868 0.252869
vt -0.005398 0.000215
vt 0.500000 0.054124
vt 0.500000 0.089525
vt -0.005398 0.089525
vt 1.005398 0.000215
vt 1.005398 0.089525
vt 1.005398 0.178834
vt 0.500000 0.178834
vt -0.005398 0.178834
vt 1.005398 0.000215
vt 0.500000 0.054124
vt 0.500000 0.089525
vt 1.005398 0.089525
vt -0.005398 0.000215
vt -0.005398 0.089525
vt -0.005398 0.178834
vt 0.500000 0.178834
vt 1.005398 0.178834
vt 0.117868 0.252869
vt 0.500000 0.252869
vt 0.500000 0.126542
vt 0.056235 0.126542
vt 0.882132 0.252869
vt 0.943765 0.126542
vt 0.500000 0.060975
vt 0.829269 0.170731
vt 0.170731 0.170731
vt 0.000000 0.000000
vt 0.500000 0.000000
vt 1.000000 0.000000
vt 0.500000 0.939025
vt 0.170731 0.829269
vt 0.829269 0.829269
vt 1.000000 1.000000
vt 0.500000 1.000000
vt 0.000000 1.000000
vt 0.882132 0.252869
vt 0.500000 0.252869
vt 0.500000 0.126542
vt 0.943765 0.126542
vt 0.117868 0.252869
vt 0.056235 0.126542
vt 0.500000 0.126542
vt 0.056235 0.126542
vt 0.943765 0.126542
vt 0.939025 0.500000
vt 1.000000 0.500000
vt 0.500000 0.126542
vt 0.943765 0.126542
vt 0.056235 0.126542
vt 0.060975 0.500000
vt 0.000000 0.500000
vn 0.381495 -0.841977 -0.381493
vn -0.000000 -0.794838 -0.606821
vn -0.000000 0.002295 0.999997
vn -0.707102 0.003690 0.707102
vn -0.381498 -0.841973 -0.381498
vn 0.707100 0.003689 0.707104
vn 0.694170 0.190424 0.694167
vn 0.000000 0.181489 0.983393
vn -0.694168 0.190426 0.694168
vn -0.329230 0.884994 0.329231
vn -0.000000 0.917563 0.397590
vn -0.000000 1.000000 0.000000
vn -0.397590 0.917563 -0.000000
vn 0.329231 0.884994 0.329231
vn 0.397591 0.917563 0.000000
vn 0.329231 0.884994 -0.329231
vn -0.000000 0.917563 -0.397590
vn -0.329230 0.884994 -0.329231
vn -0.694168 0.190426 -0.694168
vn -0.000000 0.181489 -0.983393
vn -0.000000 0.002295 -0.999997
vn -0.707102 0.003690 -0.707102
vn 0.694170 0.190424 -0.694167
vn 0.707100 0.003689 -0.707104
vn -0.381498 -0.841973 0.381498
vn 0.000000 -0.794838 0.606822
vn 0.381495 -0.841977 0.381493
vn 0.379904 -0.843413 0.379905
vn 0.000000 -0.888580 0.458721
vn 0.000000 -1.000000 0.000000
vn 0.458722 -0.888580 0.000000
vn -0.379904 -0.843413 0.379904
vn -0.458722 -0.888580 -0.000000
vn -0.379905 -0.843413 -0.379904
vn -0.000000 -0.888580 -0.458721
vn 0.379904 -0.843413 -0.379905
vn -0.606831 -0.794831 0.000000
vn 0.999997 0.002294 -0.000000
vn 0.983393 0.181487 0.000000
vn 0.606822 -0.794838 0.000000
vn -0.999997 0.002295 0.000000
vn -0.983393 0.181489 -0.000000
vn -0.000000 -0.545357 -0.838204
vn 0.591240 -0.548516 -0.591241
vn -0.591238 -0.548518 -0.591240
vn -0.000000 0.491058 0.871127
vn 0.616332 0.490169 0.616335
vn -0.616334 0.490168 0.616335
vn -0.000000 0.491058 -0.871127
vn -0.616334 0.490168 -0.616335
vn 0.616332 0.490169 -0.616334
vn 0.000000 -0.545357 0.838204
vn -0.591238 -0.548518 0.591240
vn 0.591240 -0.548516 0.591241
vn -0.838202 -0.545360 -0.000000
vn 0.871125 0.491062 0.000000
vn 0.838204 -0.545357 0.000000
vn -0.871127 0.491058 -0.000000
vn 0.381496 -0.841974 -0.381497
vn -0.000000 -0.794838 -0.606822
vn -0.000000 0.002295 0.999997
vn -0.707101 0.003690 0.707103
vn -0.381496 -0.841974 -0.381497
vn 0.707101 0.003690 0.707103
vn 0.694168 0.190425 0.694168
vn 0.000000 0.181489 0.983393
vn -0.694168 0.190425 0.694168
vn -0.329230 0.884994 0.329231
vn 0.000000 0.917563 0.397590
vn 0.000000 1.000000 -0.000000
vn -0.397590 0.917563 0.000000
vn 0.329230 0.884994 0.329231
vn 0.397590 0.917563 -0.000000
vn 0.329230 0.884994 -0.329231
vn -0.000000 0.917563 -0.397590
vn -0.329230 0.884994 -0.329231
vn -0.694168 0.190425 -0.694168
vn 0.000000 0.181489 -0.983393
vn 0.000000 0.002295 -0.999997
vn -0.707101 0.003690 -0.707103
vn 0.694168 0.190425 -0.694168
vn 0.707101 0.003690 -0.707103
vn -0.381496 -0.841974 0.381497
vn 0.000000 -0.794838 0.606822
vn 0.381496 -0.841974 0.381497
vn 0.379904 -0.843413 0.379905
vn -0.000000 -0.888580 0.458721
vn -0.000000 -1.000000 0.000000
vn 0.458722 -0.888580 0.000000
vn -0.379904 -0.843413 0.379904
vn -0.458722 -0.888580 -0.000000
vn -0.379904 -0.843413 -0.379904
vn 0.000000 -0.888580 -0.458722
vn 0.379904 -0.843413 -0.379904
vn -0.606827 -0.794834 0.000000
vn 0.999997 0.002295 0.000000
vn 0.983393 0.181487 -0.000000
vn 0.606827 -0.794834 0.000000
vn -0.999997 0.002295 0.000000
vn -0.983393 0.181488 0.000000
vn -0.000000 -0.545357 -0.838204
vn 0.591240 -0.548517 -0.591240
vn -0.591240 -0.548517 -0.591240
vn 0.000000 0.491058 0.871127
vn 0.616334 0.490168 0.616334
vn -0.616334 0.490168 0.616334
vn 0.000000 0.491058 -0.871127
vn -0.616334 0.490168 -0.616334
vn 0.616334 0.490168 -0.616334
vn -0.000000 -0.545357 0.838204
vn -0.591240 -0.548517 0.591240
vn 0.591240 -0.548517 0.591240
vn -0.838203 -0.545358 -0.000000
vn 0.871126 0.491059 -0.000000
vn 0.838203 -0.545358 0.000000
vn -0.871126 0.491059 0.000000
vn 0.381494 -0.841977 -0.381493
vn -0.000000 -0.794837 -0.606823
vn 0.000000 0.002295 0.999997
vn -0.707102 0.003690 0.707102
vn -0.381498 -0.841970 -0.381504
vn 0.707100 0.003689 0.707104
vn 0.694169 0.190423 0.694167
vn 0.000000 0.181489 0.983393
vn -0.694168 0.190426 0.694168
vn -0.329230 0.884994 0.329231
vn 0.000000 0.917563 0.397590
vn -0.000000 1.000000 0.000000
vn -0.397591 0.917563 0.000000
vn 0.329230 0.884994 0.329231
vn 0.397590 0.917563 0.000000
vn 0.329230 0.884994 -0.329231
vn 0.000000 0.917563 -0.397590
vn -0.329230 0.884994 -0.329231
vn -0.694168 0.190426 -0.694168
vn -0.000000 0.181489 -0.983393
vn -0.000000 0.002295 -0.999997
vn -0.707102 0.003690 -0.707102
vn 0.694169 0.190423 -0.694167
vn 0.707100 0.003689 -0.707104
vn -0.381498 -0.841970 0.381504
vn -0.000000 -0.794837 0.606823
vn 0.381494 -0.841977 0.381493
vn 0.379903 -0.843413 0.379905
vn 0.000000 -0.888580 0.458722
vn 0.000000 -1.000000 0.000000
vn 0.458722 -0.888580 -0.000000
vn -0.379903 -0.843414 0.379904
vn -0.458721 -0.888580 0.000000
vn -0.379903 -0.843413 -0.379904
vn 0.000000 -0.888580 -0.458722
vn 0.379903 -0.843413 -0.379905
vn -0.606835 -0.794828 0.000000
vn 0.999997 0.002294 0.000000
vn 0.983394 0.181485 -0.000000
vn 0.606821 -0.794838 0.000000
vn -0.999997 0.002295 0.000000
vn -0.983393 0.181489 -0.000000
vn -0.000000 -0.545357 -0.838204
vn 0.591240 -0.548517 -0.591240
vn -0.591240 -0.548517 -0.591239
vn 0.000000 0.491059 0.871127
vn 0.616334 0.490169 0.616334
vn -0.616334 0.490168 0.616334
vn 0.000000 0.491059 -0.871127
vn -0.616334 0.490168 -0.616334
vn 0.616334 0.490169 -0.616334
vn -0.000000 -0.545357 0.838204
vn -0.591240 -0.548517 0.591240
vn 0.591240 -0.548517 0.591240
vn -0.838202 -0.545359 -0.000000
vn 0.871125 0.491061 0.000000
vn 0.838203 -0.545358 -0.000000
vn -0.871126 0.491060 -0.000000
s 1
g SmallGroupBush
usemtl phong1SG
f 9/13/1 31/47/2 45/33/3 34/52/4
f 31/47/2 10/15/5 32/48/6 45/33/3
f 45/33/3 32/48/6 11/17/7 33/50/8
f 34/52/4 45/33/3 33/50/8 12/20/9
f 3/5/10 35/54/11 46/34/12 38/57/13
f 35/54/11 4/6/14 36/55/15 46/34/12
f 46/34/12 36/55/15 6/8/16 37/56/17
f 38/57/13 46/34/12 37/56/17 5/7/18
f 13/23/19 39/58/20 47/35/21 42/63/22
f 39/58/20 14/26/23 40/60/24 47/35/21
f 47/35/21 40/60/24 15/29/25 41/62/26
f 42/63/22 47/35/21 41/62/26 16/31/27
f 7/9/28 43/65/29 48/36/30 18/70/31
f 43/65/29 8/11/32 44/67/33 48/36/30
f 48/36/30 44/67/33 2/3/34 17/68/35
f 18/70/31 48/36/30 17/68/35 1/1/36
f 10/16/5 19/71/37 49/37/38 32/49/6
f 19/71/37 15/30/25 40/61/24 49/37/38
f 49/37/38 40/61/24 14/28/23 20/72/39
f 32/49/6 49/37/38 20/72/39 11/18/7
f 16/32/27 21/74/40 50/38/41 42/64/22
f 21/74/40 9/14/1 34/53/4 50/38/41
f 50/38/41 34/53/4 12/22/9 22/75/42
f 42/64/22 50/38/41 22/75/42 13/24/19
f 1/2/36 17/69/35 51/39/43 24/79/44
f 17/69/35 2/4/34 23/77/45 51/39/43
f 51/39/43 23/77/45 10/15/5 31/47/2
f 24/79/44 51/39/43 31/47/2 9/13/1
f 4/6/14 35/54/11 52/40/46 26/82/47
f 35/54/11 3/5/10 25/81/48 52/40/46
f 52/40/46 25/81/48 12/21/9 33/51/8
f 26/82/47 52/40/46 33/51/8 11/19/7
f 5/7/18 37/56/17 53/41/49 28/84/50
f 37/56/17 6/8/16 27/83/51 53/41/49
f 53/41/49 27/83/51 14/27/23 39/59/20
f 28/84/50 53/41/49 39/59/20 13/25/19
f 8/12/32 43/66/29 54/42/52 30/87/53
f 43/66/29 7/10/28 29/85/54 54/42/52
f 54/42/52 29/85/54 16/31/27 41/62/26
f 30/87/53 54/42/52 41/62/26 15/29/25
f 2/3/34 44/67/33 55/43/55 23/78/45
f 44/67/33 8/11/32 30/88/53 55/43/55
f 55/43/55 30/88/53 15/30/25 19/71/37
f 23/78/45 55/43/55 19/71/37 10/16/5
f 6/8/16 36/55/15 56/44/56 27/83/51
f 36/55/15 4/6/14 26/82/47 56/44/56
f 56/44/56 26/82/47 11/19/7 20/73/39
f 27/83/51 56/44/56 20/73/39 14/27/23
f 7/9/28 18/70/31 57/45/57 29/86/54
f 18/70/31 1/1/36 24/80/44 57/45/57
f 57/45/57 24/80/44 9/14/1 21/74/40
f 29/86/54 57/45/57 21/74/40 16/32/27
f 3/5/10 38/57/13 58/46/58 25/81/48
f 38/57/13 5/7/18 28/84/50 58/46/58
f 58/46/58 28/84/50 13/25/19 22/76/42
f 25/81/48 58/46/58 22/76/42 12/21/9
s 5
f 67/89/59 89/90/60 103/91/61 92/92/62
f 89/90/60 68/93/63 90/94/64 103/91/61
f 103/91/61 90/94/64 69/95/65 91/96/66
f 92/92/62 103/91/61 91/96/66 70/97/67
f 61/98/68 93/99/69 104/100/70 96/101/71
f 93/99/69 62/102/72 94/103/73 104/100/70
f 104/100/70 94/103/73 64/104/74 95/105/75
f 96/101/71 104/100/70 95/105/75 63/106/76
f 71/107/77 97/108/78 105/109/79 100/110/80
f 97/108/78 72/111/81 98/112/82 105/109/79
f 105/109/79 98/112/82 73/113/83 99/114/84
f 100/110/80 105/109/79 99/114/84 74/115/85
f 65/116/86 101/117/87 106/118/88 76/119/89
f 101/117/87 66/120/90 102/121/91 106/118/88
f 106/118/88 102/121/91 60/122/92 75/123/93
f 76/119/89 106/118/88 75/123/93 59/124/94
f 68/125/63 77/126/95 107/127/96 90/128/64
f 77/126/95 73/129/83 98/130/82 107/127/96
f 107/127/96 98/130/82 72/131/81 78/132/97
f 90/128/64 107/127/96 78/132/97 69/133/65
f 74/134/85 79/135/98 108/136/99 100/137/80
f 79/135/98 67/138/59 92/139/62 108/136/99
f 108/136/99 92/139/62 70/140/67 80/141/100
f 100/137/80 108/136/99 80/141/100 71/142/77
f 59/143/94 75/144/93 109/145/101 82/146/102
f 75/144/93 60/147/92 81/148/103 109/145/101
f 109/145/101 81/148/103 68/93/63 89/90/60
f 82/146/102 109/145/101 89/90/60 67/89/59
f 62/102/72 93/99/69 110/149/104 84/150/105
f 93/99/69 61/98/68 83/151/106 110/149/104
f 110/149/104 83/151/106 70/152/67 91/153/66
f 84/150/105 110/149/104 91/153/66 69/154/65
f 63/106/76 95/105/75 111/155/107 86/156/108
f 95/105/75 64/104/74 85/157/109 111/155/107
f 111/155/107 85/157/109 72/158/81 97/159/78
f 86/156/108 111/155/107 97/159/78 71/160/77
f 66/161/90 101/162/87 112/163/110 88/164/111
f 101/162/87 65/165/86 87/166/112 112/163/110
f 112/163/110 87/166/112 74/115/85 99/114/84
f 88/164/111 112/163/110 99/114/84 73/113/83
f 60/122/92 102/121/91 113/167/113 81/168/103
f 102/121/91 66/120/90 88/169/111 113/167/113
f 113/167/113 88/169/111 73/129/83 77/126/95
f 81/168/103 113/167/113 77/126/95 68/125/63
f 64/104/74 94/103/73 114/170/114 85/157/109
f 94/103/73 62/102/72 84/150/105 114/170/114
f 114/170/114 84/150/105 69/154/65 78/171/97
f 85/157/109 114/170/114 78/171/97 72/158/81
f 65/116/86 76/119/89 115/172/115 87/173/112
f 76/119/89 59/124/94 82/174/102 115/172/115
f 115/172/115 82/174/102 67/138/59 79/135/98
f 87/173/112 115/172/115 79/135/98 74/134/85
f 61/98/68 96/101/71 116/175/116 83/151/106
f 96/101/71 63/106/76 86/156/108 116/175/116
f 116/175/116 86/156/108 71/160/77 80/176/100
f 83/151/106 116/175/116 80/176/100 70/152/67
s 9
f 125/177/117 147/178/118 161/179/119 150/180/120
f 147/178/118 126/181/121 148/182/122 161/179/119
f 161/179/119 148/182/122 127/183/123 149/184/124
f 150/180/120 161/179/119 149/184/124 128/185/125
f 119/186/126 151/187/127 162/188/128 154/189/129
f 151/187/127 120/190/130 152/191/131 162/188/128
f 162/188/128 152/191/131 122/192/132 153/193/133
f 154/189/129 162/188/128 153/193/133 121/194/134
f 129/195/135 155/196/136 163/197/137 158/198/138
f 155/196/136 130/199/139 156/200/140 163/197/137
f 163/197/137 156/200/140 131/201/141 157/202/142
f 158/198/138 163/197/137 157/202/142 132/203/143
f 123/204/144 159/205/145 164/206/146 134/207/147
f 159/205/145 124/208/148 160/209/149 164/206/146
f 164/206/146 160/209/149 118/210/150 133/211/151
f 134/207/147 164/206/146 133/211/151 117/212/152
f 126/213/121 135/214/153 165/215/154 148/216/122
f 135/214/153 131/217/141 156/218/140 165/215/154
f 165/215/154 156/218/140 130/219/139 136/220/155
f 148/216/122 165/215/154 136/220/155 127/221/123
f 132/222/143 137/223/156 166/224/157 158/225/138
f 137/223/156 125/226/117 150/227/120 166/224/157
f 166/224/157 150/227/120 128/228/125 138/229/158
f 158/225/138 166/224/157 138/229/158 129/230/135
f 117/231/152 133/232/151 167/233/159 140/234/160
f 133/232/151 118/235/150 139/236/161 167/233/159
f 167/233/159 139/236/161 126/181/121 147/178/118
f 140/234/160 167/233/159 147/178/118 125/177/117
f 120/190/130 151/187/127 168/237/162 142/238/163
f 151/187/127 119/186/126 141/239/164 168/237/162
f 168/237/162 141/239/164 128/240/125 149/241/124
f 142/238/163 168/237/162 149/241/124 127/242/123
f 121/194/134 153/193/133 169/243/165 144/244/166
f 153/193/133 122/192/132 143/245/167 169/243/165
f 169/243/165 143/245/167 130/246/139 155/247/136
f 144/244/166 169/243/165 155/247/136 129/248/135
f 124/249/148 159/250/145 170/251/168 146/252/169
f 159/250/145 123/253/144 145/254/170 170/251/168
f 170/251/168 145/254/170 132/203/143 157/202/142
f 146/252/169 170/251/168 157/202/142 131/201/141
f 118/210/150 160/209/149 171/255/171 139/256/161
f 160/209/149 124/208/148 146/257/169 171/255/171
f 171/255/171 146/257/169 131/217/141 135/214/153
f 139/256/161 171/255/171 135/214/153 126/213/121
f 122/192/132 152/191/131 172/258/172 143/245/167
f 152/191/131 120/190/130 142/238/163 172/258/172
f 172/258/172 142/238/163 127/242/123 136/259/155
f 143/245/167 172/258/172 136/259/155 130/246/139
f 123/204/144 134/207/147 173/260/173 145/261/170
f 134/207/147 117/212/152 140/262/160 173/260/173
f 173/260/173 140/262/160 125/226/117 137/223/156
f 145/261/170 173/260/173 137/223/156 132/222/143
f 119/186/126 154/189/129 174/263/174 141/239/164
f 154/189/129 121/194/134 144/244/166 174/263/174
f 174/263/174 144/244/166 129/248/135 138/264/158
f 141/239/164 174/263/174 138/264/158 128/240/125
