# This file uses centimeters as units for non-parametric coordinates.

mtllib SmallHut.mtl
g default
v 18.197123 0.000000 18.197117
v 18.197121 1.387752 18.197117
v -18.197121 0.000000 18.197117
v -18.197121 1.387752 18.197117
v -18.197121 0.000000 -18.197132
v -18.197121 1.387752 -18.197132
v 18.197123 0.000000 -18.197132
v 18.197121 1.387752 -18.197132
v 0.000000 1.387752 -18.197132
v 0.000000 0.000000 -18.197132
v 0.000000 0.000000 18.197117
v 0.000000 1.387752 18.197117
v -18.197121 1.387752 -0.000004
v -18.197121 0.000000 -0.000004
v 0.000000 0.000000 -0.000004
v 18.197123 0.000000 -0.000004
v 18.197121 1.387752 -0.000004
v 0.000000 1.387752 -0.000004
v -13.197121 1.298000 18.197117
v -18.197121 1.298000 18.197117
v -13.197121 1.298000 -18.197132
v -18.197121 1.298000 -18.197132
v -13.197121 1.298000 -0.000004
v -18.197121 1.298000 -0.000004
v 13.197124 1.298000 18.197117
v 18.197121 1.298000 18.197117
v 13.197124 1.298000 -18.197132
v 18.197121 1.298000 -18.197132
v 13.197124 1.298000 -0.000004
v 18.197121 1.298000 -0.000004
v -3.298950 35.287392 -18.197132
v 0.000000 37.145103 -18.197132
v 3.298952 35.287392 -18.197132
v -3.298950 30.190201 -18.197132
v 0.000000 32.214020 -18.197132
v 3.298952 30.190201 -18.197132
v -3.298950 30.190201 -0.000004
v 0.000000 32.214020 -0.000004
v 3.298952 30.190201 -0.000004
v -3.298950 30.190201 18.197117
v 0.000000 32.214020 18.197117
v 3.298952 30.190201 18.197117
v -3.298950 35.287392 18.197117
v 0.000000 37.145103 18.197117
v 3.298952 35.287392 18.197117
v -3.298950 35.287392 -0.000004
v 0.000000 37.145103 -0.000004
v 3.298952 35.287392 -0.000004
vt 0.000000 0.500000
vt 1.000000 0.500000
vt 1.000000 1.000000
vt 0.000000 1.000000
vt 1.134210 0.000000
vt 2.134210 0.000000
vt 2.134210 0.500000
vt 1.134210 0.500000
vt 1.000000 1.000000
vt 0.000000 1.000000
vt 0.000000 0.500000
vt 1.000000 0.500000
vt 1.134210 0.500000
vt 2.134210 0.500000
vt 2.134210 1.000000
vt 1.134210 1.000000
vt 0.000000 0.500000
vt 0.500000 0.500000
vt 0.500000 1.000000
vt 0.000000 1.000000
vt 0.500000 0.500000
vt 1.000000 0.500000
vt 1.000000 1.000000
vt 0.500000 1.000000
vt 0.000000 -0.000000
vt 1.000000 -0.000000
vt 0.500000 -0.000000
vt 1.000000 -0.000000
vt 0.000000 -0.000000
vt 1.000000 -0.000000
vt 0.000000 -0.000000
vt 0.500000 -0.000000
vt 2.134210 1.000000
vt 1.134210 1.000000
vt 0.000000 0.500000
vt 0.000000 1.000000
vt 0.000000 -0.000000
vt 1.134210 -0.000000
vt 2.134210 -0.000000
vt 1.000000 -0.000000
vt 1.000000 0.500000
vt 1.000000 1.000000
vt 1.134210 0.500000
vt 1.134210 1.000000
vt 2.134210 1.000000
vt 2.134210 0.500000
vt 1.134210 -0.000000
vt 2.134210 -0.000000
vt 1.134210 0.500000
vt 2.134210 0.500000
vt 2.134210 1.000000
vt 1.134210 1.000000
vt 1.134210 -0.000000
vt 2.134210 -0.000000
vt 1.000000 0.375012
vt 1.000000 -0.000000
vt 0.000000 -0.000000
vt 0.000000 0.409355
vt 0.000000 -0.000000
vt 0.000000 0.375012
vt 0.500000 0.375012
vt 0.500000 -0.000000
vt 1.000000 0.375012
vt 1.000000 -0.000000
vt 0.000000 -0.000000
vt 0.000001 0.375012
vt 1.000000 0.409355
vt 1.000000 -0.000000
vt 0.000000 -0.000000
vt 0.000000 0.409355
vt 0.500000 0.409355
vt 0.500000 -0.000000
vt 1.000000 0.409355
vt 1.000000 -0.000000
vt 1.000000 0.375012
vt 0.000000 0.409355
vt 0.000000 -0.000000
vt 1.000000 -0.000000
vt 0.000000 -0.000000
vt 0.500000 -0.000000
vt 0.500000 0.375012
vt 0.000000 0.375012
vt 1.000000 -0.000000
vt 1.000000 0.375012
vt 0.000000 -0.000000
vt 1.000000 -0.000000
vt 1.000000 0.409355
vt 0.000000 0.375012
vt 0.000000 -0.000000
vt 0.500000 -0.000000
vt 0.500000 0.409355
vt 0.000000 0.409355
vt 1.000000 0.409355
vt 1.000000 -0.000000
vt 0.000000 0.500000
vt 1.000000 0.500000
vt 0.000000 0.500000
vt 1.000000 0.500000
vt 0.000000 0.500000
vt 0.500000 0.500000
vt 0.000000 0.500000
vt 0.500000 0.500000
vt 1.000000 0.500000
vt 1.000000 0.500000
vt 0.000000 0.500000
vt 1.000000 0.500000
vt 0.000000 0.500000
vt 1.000000 0.500000
vt 0.000000 0.500000
vt 0.500000 0.500000
vt 0.000000 0.500000
vt 0.500000 0.500000
vt 1.000000 0.500000
vt 1.000000 0.500000
vn 0.000000 0.000000 1.000000
vn 0.000000 0.000000 1.000000
vn 0.000000 0.000000 1.000000
vn 0.000000 0.000000 1.000000
vn -1.000000 0.000000 0.000000
vn -1.000000 0.000000 0.000000
vn -1.000000 0.000000 0.000000
vn -1.000000 0.000000 0.000000
vn 0.000000 0.000000 -1.000000
vn 0.000000 0.000000 -1.000000
vn 0.000000 0.000000 -1.000000
vn 0.000000 0.000000 -1.000000
vn 1.000000 0.000001 0.000000
vn 1.000000 0.000001 0.000000
vn 1.000000 0.000001 0.000000
vn 1.000000 0.000001 0.000000
vn 0.000000 1.000000 0.000000
vn 0.000000 1.000000 0.000000
vn 0.000000 1.000000 0.000000
vn 0.000000 1.000000 0.000000
vn 0.000000 -1.000000 0.000000
vn 0.000000 -1.000000 0.000000
vn 0.000000 -1.000000 0.000000
vn 0.000000 -1.000000 0.000000
vn 0.000000 0.000000 -1.000000
vn 0.000000 0.000000 -1.000000
vn 0.000000 -1.000000 0.000000
vn 0.000000 -1.000000 0.000000
vn 0.000000 0.000000 1.000000
vn 0.000000 0.000000 1.000000
vn 0.000000 1.000000 0.000000
vn 0.000000 1.000000 0.000000
vn -1.000000 0.000000 0.000000
vn -1.000000 0.000000 0.000000
vn 0.000000 -1.000000 0.000000
vn 0.000000 -1.000000 0.000000
vn 0.000000 -1.000000 0.000000
vn 1.000000 0.000001 0.000000
vn 1.000000 0.000001 0.000000
vn 0.000000 1.000000 0.000000
vn 0.000000 1.000000 0.000000
vn 0.000000 1.000000 0.000000
vn 0.000000 -1.000000 0.000000
vn 0.000000 -1.000000 0.000000
vn 0.000000 -1.000000 0.000000
vn 0.000000 -1.000000 0.000000
vn 0.000000 -1.000000 0.000000
vn 0.000000 -1.000000 0.000000
vn 0.000000 -1.000000 0.000000
vn 0.000000 -1.000000 0.000000
vn 0.000000 -1.000000 0.000000
vn 0.000000 -1.000000 0.000000
vn 0.000000 -1.000000 0.000000
vn 0.000000 -1.000000 0.000000
vn 0.000000 0.000000 -1.000000
vn 0.000000 0.000000 -1.000000
vn 0.000000 0.000000 -1.000000
vn 0.000000 0.000000 -1.000000
vn 0.946024 -0.324098 0.000000
vn 0.946024 -0.324098 0.000000
vn 0.946024 -0.324098 0.000000
vn 0.946024 -0.324098 0.000000
vn 0.946024 -0.324098 0.000000
vn 0.946024 -0.324098 0.000000
vn 0.000000 0.000000 1.000000
vn 0.000000 0.000000 1.000000
vn 0.000000 0.000000 1.000000
vn 0.000000 0.000000 1.000000
vn -0.915882 0.401448 0.000000
vn -0.891689 0.452649 0.000000
vn -0.891689 0.452649 0.000000
vn -0.915882 0.401448 0.000000
vn -0.891689 0.452649 0.000000
vn -0.915882 0.401448 0.000000
vn 0.000000 0.000000 -1.000000
vn 0.000000 0.000000 -1.000000
vn 0.000000 0.000000 -1.000000
vn 0.000000 0.000000 -1.000000
vn -0.946024 -0.324098 0.000000
vn -0.946024 -0.324098 0.000000
vn -0.946024 -0.324098 0.000000
vn -0.946024 -0.324098 0.000000
vn -0.946024 -0.324098 0.000000
vn -0.946024 -0.324098 0.000000
vn 0.000000 0.000000 1.000000
vn 0.000000 0.000000 1.000000
vn 0.000000 0.000000 1.000000
vn 0.000000 0.000000 1.000000
vn 0.915882 0.401448 0.000000
vn 0.915882 0.401448 0.000000
vn 0.891689 0.452649 0.000000
vn 0.891689 0.452649 0.000000
vn 0.891689 0.452649 0.000000
vn 0.915882 0.401448 0.000000
vn 0.000000 0.000000 -1.000000
vn 0.000000 0.000000 -1.000000
vn 0.522916 -0.852385 0.000000
vn 0.522916 -0.852385 0.000000
vn 0.522915 -0.852385 0.000000
vn 0.522915 -0.852385 0.000000
vn -0.522915 -0.852385 0.000000
vn -0.522915 -0.852385 0.000000
vn -0.522915 -0.852385 0.000000
vn -0.522915 -0.852385 0.000000
vn 0.522915 -0.852385 0.000000
vn 0.522915 -0.852385 0.000000
vn -0.522915 -0.852385 0.000000
vn -0.522915 -0.852385 0.000000
vn 0.000000 0.000000 1.000000
vn 0.000000 0.000000 1.000000
vn -0.490673 0.871344 0.000000
vn -0.490673 0.871344 0.000000
vn 0.490673 0.871344 0.000000
vn 0.490673 0.871344 0.000000
vn 0.490673 0.871344 0.000000
vn -0.490673 0.871344 0.000000
s 1
g polySurface107
usemtl blinn3SG
f 11/1/1 12/2/2 4/3/3 3/4/4
s 2
f 3/5/5 4/6/6 13/7/7 14/8/8
s 3
f 5/9/9 6/10/10 9/11/11 10/12/12
s 4
f 16/13/13 17/14/14 2/15/15 1/16/16
s 5
f 12/17/17 18/18/18 13/19/19 4/20/20
s 6
f 15/21/21 11/22/22 3/23/23 14/24/24
s 3
f 10/12/12 9/11/11 8/25/25 7/26/26
s 6
f 16/27/27 1/28/28 11/22/22 15/21/21
s 1
f 1/29/29 2/30/30 12/2/2 11/1/1
s 5
f 2/31/31 17/32/32 18/18/18 12/17/17
s 2
f 14/8/8 13/7/7 6/33/33 5/34/34
s 6
f 10/35/35 15/21/21 14/24/24 5/36/36
f 7/37/37 16/27/27 15/21/21 10/35/35
s 4
f 7/38/38 8/39/39 17/14/14 16/13/13
s 5
f 18/18/18 17/32/32 8/40/40 9/41/41
f 13/19/19 18/18/18 9/41/41 6/42/42
s 7
f 23/43/43 19/44/44 20/45/45 24/46/46
f 21/47/47 23/43/43 24/46/46 22/48/48
s 8
f 29/49/49 30/50/50 26/51/51 25/52/52
f 27/53/53 28/54/54 30/50/50 29/49/49
s 9
f 34/55/55 21/56/56 22/57/57 31/58/58
s 10
f 21/59/59 34/60/60 37/61/61 23/62/62
f 23/62/62 37/61/61 40/63/63 19/64/64
s 11
f 19/65/65 40/66/66 43/67/67 20/68/68
s 12
f 20/69/69 43/70/70 46/71/71 24/72/72
f 31/73/73 22/74/74 24/72/72 46/71/71
s 9
f 36/75/75 33/76/76 28/77/77 27/78/78
s 14
f 27/79/79 29/80/80 39/81/81 36/82/82
f 29/80/80 25/83/83 42/84/84 39/81/81
s 11
f 25/85/85 26/86/86 45/87/87 42/88/88
s 16
f 26/89/89 30/90/90 48/91/91 45/92/92
f 33/93/93 48/91/91 30/90/90 28/94/94
s 9
f 31/58/58 32/95/95 35/96/96 34/55/55
f 32/97/95 33/76/76 36/75/75 35/98/96
s 17
f 34/60/97 35/99/98 38/100/99 37/61/100
s 18
f 35/101/101 36/82/102 39/81/103 38/102/104
s 17
f 37/61/100 38/100/99 41/103/105 40/63/106
s 18
f 38/102/104 39/81/103 42/84/107 41/104/108
s 11
f 40/66/66 41/105/109 44/106/110 43/67/67
f 41/107/109 42/88/88 45/87/87 44/108/110
s 12
f 43/70/70 44/109/111 47/110/112 46/71/71
s 16
f 44/111/113 45/92/92 48/91/91 47/112/114
f 33/93/93 32/113/115 47/112/114 48/91/91
s 12
f 32/114/116 31/73/73 46/71/71 47/110/112
