# This file uses centimeters as units for non-parametric coordinates.

mtllib TallTorch.mtl
g default
v -3.755779 50.295635 3.755779
v 3.755779 50.295635 3.755779
v -6.250000 56.490097 6.250000
v 6.250000 56.490097 6.250000
v -6.250000 56.490097 -6.250000
v 6.250000 56.490097 -6.250000
v -3.755779 50.295635 -3.755779
v 3.755779 50.295635 -3.755779
v 0.000000 56.490097 6.250000
v 0.000000 56.490097 -6.250000
v 0.000000 50.295635 -3.755779
v 0.000000 50.295635 3.755779
v -6.250000 56.490097 0.000000
v -3.755779 50.295635 0.000000
v 0.000000 50.295635 0.000000
v 3.755779 50.295635 0.000000
v 6.250000 56.490097 0.000000
v -4.760723 56.100296 4.760723
v 0.000000 56.100296 4.760723
v -4.760723 56.100296 0.000000
v 4.760723 56.100296 4.760723
v 4.760723 56.100296 0.000000
v 4.760723 56.100296 -4.760723
v 0.000000 56.100296 -4.760723
v -4.760723 56.100296 -4.760723
v -4.760723 53.825302 4.760723
v 0.000000 53.825302 4.760723
v 0.000000 53.825302 0.000000
v -4.760723 53.825302 0.000000
v 4.760723 53.825302 4.760723
v 4.760723 53.825302 0.000000
v 4.760723 53.825302 -4.760723
v 0.000000 53.825302 -4.760723
v -4.760723 53.825302 -4.760723
v -2.500000 -0.000000 2.500000
v 2.500000 -0.000000 2.500000
v -2.500000 50.295635 2.500000
v 2.500000 50.295635 2.500000
v -2.500000 50.295635 -2.500000
v 2.500000 50.295635 -2.500000
v -2.500000 -0.000000 -2.500000
v 2.500000 -0.000000 -2.500000
vt 0.000000 -0.000000
vt 0.000000 -0.000000
vt 1.134210 0.000000
vt 2.134210 0.000000
vt 2.134210 1.000000
vt 1.134210 1.000000
vt 1.134210 -0.000000
vt 2.134210 -0.000000
vt 2.134210 1.000000
vt 1.134210 1.000000
vt 1.000000 -0.000000
vt 1.000000 1.000000
vt 1.000000 -0.000000
vt 1.000000 1.000000
vt 0.000000 -0.000000
vt 1.000000 -0.000000
vt 1.000000 1.000000
vt 0.000000 1.000000
vt 0.000000 1.000000
vt 1.000000 1.000000
vt 0.000000 1.000000
vt 0.000000 -0.000000
vt 1.000000 -0.000000
vt 0.000000 1.000000
vt 1.634210 0.000000
vt 0.500000 1.000000
vt 0.500000 1.000000
vt 1.634210 1.000000
vt 1.634210 -0.000000
vt 0.500000 -0.000000
vt 0.500000 -0.000000
vt 1.634210 1.000000
vt 0.500000 1.000000
vt 1.134210 0.500000
vt 0.500000 -0.000000
vt 1.134210 0.500000
vt 1.634210 0.500000
vt 2.134210 0.500000
vt 0.500000 -0.000000
vt 2.134210 0.500000
vt 0.500000 1.000000
vt 1.634210 0.500000
vt 1.134210 0.000000
vt 1.634210 0.000000
vt 1.134210 0.500000
vt 2.134210 0.000000
vt 2.134210 0.500000
vt 2.134210 1.000000
vt 1.634210 1.000000
vt 1.134210 1.000000
vt 1.134210 0.000000
vt 1.634210 0.000000
vt 1.134210 0.500000
vt 2.134210 0.000000
vt 2.134210 0.500000
vt 2.134210 1.000000
vt 1.634210 1.000000
vt 1.134210 1.000000
vt 0.000000 -0.000000
vt 1.000000 -0.000000
vt 1.000000 1.000000
vt 0.000000 1.000000
vt 1.134210 0.000000
vt 2.134210 0.000000
vt 2.134210 1.000000
vt 1.134210 1.000000
vt 1.000000 1.000000
vt 0.000000 1.000000
vt 0.000000 -0.000000
vt 1.000000 -0.000000
vt 1.134210 -0.000000
vt 2.134210 -0.000000
vt 2.134210 1.000000
vt 1.134210 1.000000
vt 0.000000 -0.000000
vt 1.000000 -0.000000
vt 1.000000 1.000000
vt 0.000000 1.000000
vt 0.000000 -0.000000
vt 1.000000 -0.000000
vt 1.000000 1.000000
vt 0.000000 1.000000
vn 0.000000 -0.373512 0.927626
vn 0.000000 -0.373512 0.927626
vn 0.000000 -0.373512 0.927626
vn 0.000000 -0.373512 0.927626
vn 0.000000 1.000000 0.000000
vn 0.000000 1.000000 0.000000
vn 0.000000 1.000000 0.000000
vn 0.000000 1.000000 0.000000
vn 0.000000 -0.373512 -0.927626
vn 0.000000 -0.373512 -0.927626
vn 0.000000 -0.373512 -0.927626
vn 0.000000 -0.373512 -0.927626
vn 0.000000 -1.000000 0.000000
vn 0.000000 -1.000000 0.000000
vn 0.000000 -1.000000 0.000000
vn 0.000000 -1.000000 0.000000
vn 0.927626 -0.373512 0.000000
vn 0.927626 -0.373512 0.000000
vn 0.927626 -0.373512 0.000000
vn 0.927626 -0.373512 0.000000
vn -0.927626 -0.373512 0.000000
vn -0.927626 -0.373512 0.000000
vn -0.927626 -0.373512 0.000000
vn -0.927626 -0.373512 0.000000
vn 0.000000 1.000000 0.000000
vn 0.000000 1.000000 0.000000
vn 0.000000 -0.373512 -0.927626
vn 0.000000 -0.373512 -0.927626
vn 0.000000 -1.000000 0.000000
vn 0.000000 -1.000000 0.000000
vn 0.000000 -0.373512 0.927626
vn 0.000000 -0.373512 0.927626
vn -0.927626 -0.373512 0.000000
vn -0.927626 -0.373512 0.000000
vn 0.000000 -1.000000 0.000000
vn 0.000000 -1.000000 0.000000
vn 0.000000 -1.000000 0.000000
vn 0.927626 -0.373512 0.000000
vn 0.927626 -0.373512 0.000000
vn 0.000000 1.000000 0.000000
vn 0.000000 1.000000 0.000000
vn 0.000000 1.000000 0.000000
vn 0.000000 0.967411 -0.253210
vn 0.000000 0.967411 -0.253210
vn 0.000000 0.967411 -0.253210
vn 0.000000 0.967411 -0.253210
vn 0.253209 0.967412 0.000000
vn 0.253209 0.967412 0.000000
vn 0.253209 0.967412 0.000000
vn 0.253209 0.967412 0.000000
vn 0.000000 0.967412 -0.253209
vn 0.000000 0.967412 -0.253209
vn 0.000000 0.967412 -0.253209
vn 0.000000 0.967412 -0.253209
vn -0.253209 0.967412 0.000000
vn -0.253209 0.967412 0.000000
vn -0.253209 0.967412 0.000000
vn -0.253209 0.967412 0.000000
vn -0.253209 0.967412 0.000000
vn -0.253209 0.967412 0.000000
vn -0.253209 0.967412 0.000000
vn -0.253209 0.967412 0.000000
vn 0.000000 0.967411 0.253210
vn 0.000000 0.967411 0.253210
vn 0.000000 0.967411 0.253210
vn 0.000000 0.967411 0.253210
vn 0.000000 0.967412 0.253209
vn 0.000000 0.967412 0.253209
vn 0.000000 0.967412 0.253209
vn 0.000000 0.967412 0.253209
vn 0.253209 0.967412 0.000000
vn 0.253209 0.967412 0.000000
vn 0.253209 0.967412 0.000000
vn 0.253209 0.967412 0.000000
vn 0.000000 0.000000 -1.000000
vn 0.000000 0.000000 -1.000000
vn 0.000000 0.000000 -1.000000
vn 0.000000 0.000000 -1.000000
vn 1.000000 0.000000 0.000000
vn 1.000000 0.000000 0.000000
vn 1.000000 0.000000 0.000000
vn 1.000000 0.000000 0.000000
vn 0.000000 0.000000 -1.000000
vn 0.000000 0.000000 -1.000000
vn 0.000000 0.000000 -1.000000
vn 0.000000 0.000000 -1.000000
vn -1.000000 0.000000 0.000000
vn -1.000000 0.000000 0.000000
vn -1.000000 0.000000 0.000000
vn -1.000000 0.000000 0.000000
vn -1.000000 0.000000 0.000000
vn -1.000000 0.000000 0.000000
vn -1.000000 0.000000 0.000000
vn -1.000000 0.000000 0.000000
vn 0.000000 0.000000 1.000000
vn 0.000000 0.000000 1.000000
vn 0.000000 0.000000 1.000000
vn 0.000000 0.000000 1.000000
vn 0.000000 0.000000 1.000000
vn 0.000000 0.000000 1.000000
vn 0.000000 0.000000 1.000000
vn 0.000000 0.000000 1.000000
vn 1.000000 0.000000 0.000000
vn 1.000000 0.000000 0.000000
vn 1.000000 0.000000 0.000000
vn 1.000000 0.000000 0.000000
vn 0.000000 0.000000 1.000000
vn 0.000000 0.000000 1.000000
vn 0.000000 0.000000 1.000000
vn 0.000000 0.000000 1.000000
vn 0.000000 1.000000 0.000000
vn 0.000000 1.000000 0.000000
vn 0.000000 1.000000 0.000000
vn 0.000000 1.000000 0.000000
vn 0.000000 0.000000 -1.000000
vn 0.000000 0.000000 -1.000000
vn 0.000000 0.000000 -1.000000
vn 0.000000 0.000000 -1.000000
vn 0.000000 -1.000000 0.000000
vn 0.000000 -1.000000 0.000000
vn 0.000000 -1.000000 0.000000
vn 0.000000 -1.000000 0.000000
vn 1.000000 0.000000 0.000000
vn 1.000000 0.000000 0.000000
vn 1.000000 0.000000 0.000000
vn 1.000000 0.000000 0.000000
vn -1.000000 0.000000 0.000000
vn -1.000000 0.000000 0.000000
vn -1.000000 0.000000 0.000000
vn -1.000000 0.000000 0.000000
s 1
g TallTorch
usemtl blinn3SG
f 1/15/1 12/31/2 9/26/3 3/18/4
s 2
f 26/51/5 27/52/6 28/42/7 29/53/8
s 3
f 5/20/9 10/27/10 11/30/11 7/23/12
s 4
f 14/36/13 15/37/14 12/32/15 1/10/16
s 5
f 2/2/17 16/39/18 17/41/19 4/19/20
s 6
f 14/35/21 1/13/22 3/14/23 13/33/24
s 2
f 27/52/6 30/54/25 31/55/26 28/42/7
s 3
f 11/30/11 10/27/10 6/21/27 8/22/28
s 4
f 12/32/15 15/37/14 16/38/29 2/9/30
s 1
f 9/26/3 12/31/2 2/16/31 4/17/32
s 6
f 7/1/33 14/35/21 13/33/24 5/24/34
s 4
f 7/7/35 11/29/36 15/37/14 14/36/13
f 16/38/29 15/37/14 11/29/36 8/8/37
s 5
f 17/41/19 16/39/18 8/11/38 6/12/39
s 2
f 28/42/7 31/55/26 32/56/40 33/57/41
f 29/53/8 28/42/7 33/57/41 34/58/42
s off
f 3/3/43 9/25/44 19/44/45 18/43/46
f 13/34/47 3/3/48 18/43/49 20/45/50
f 9/25/51 4/4/52 21/46/53 19/44/54
f 4/4/55 17/40/56 22/47/57 21/46/58
f 17/40/59 6/5/60 23/48/61 22/47/62
f 6/5/63 10/28/64 24/49/65 23/48/66
f 10/28/67 5/6/68 25/50/69 24/49/70
f 5/6/71 13/34/72 20/45/73 25/50/74
f 18/43/75 19/44/76 27/52/77 26/51/78
f 20/45/79 18/43/80 26/51/81 29/53/82
f 19/44/83 21/46/84 30/54/85 27/52/86
f 21/46/87 22/47/88 31/55/89 30/54/90
f 22/47/91 23/48/92 32/56/93 31/55/94
f 23/48/95 24/49/96 33/57/97 32/56/98
f 24/49/99 25/50/100 34/58/101 33/57/102
f 25/50/103 20/45/104 29/53/105 34/58/106
f 35/59/107 36/60/108 38/61/109 37/62/110
f 37/63/111 38/64/112 40/65/113 39/66/114
f 39/67/115 40/68/116 42/69/117 41/70/118
f 41/71/119 42/72/120 36/73/121 35/74/122
f 36/75/123 42/76/124 40/77/125 38/78/126
f 41/79/127 35/80/128 37/81/129 39/82/130
